font.ufo
<glyph name="exclam" format="2">
  <advance width="266"/>
  <unicode hex="0021"/>
  <outline>
    <contour>
      <point x="109" y="182" type="line"/>
      <point x="157" y="182" type="line"/>
      <point x="157" y="730" type="line"/>
      <point x="109" y="730" type="line"/>
    </contour>
    <contour>
      <point x="101" y="0" type="line"/>
      <point x="166" y="0" type="line"/>
      <point x="166" y="71" type="line"/>
      <point x="101" y="71" type="line"/>
    </contour>
  </outline>
</glyph>
<glyph name="quotesingle" format="2">
  <advance width="259"/>
  <unicode hex="0027"/>
  <outline>
    <contour>
      <point x="108" y="478" type="line"/>
      <point x="151" y="478" type="line"/>
      <point x="151" y="730" type="line"/>
      <point x="108" y="730" type="line"/>
    </contour>
  </outline>
</glyph>
<glyph name="hyphen" format="2">
  <advance width="498"/>
  <unicode hex="002D"/>
  <outline>
    <contour>
      <point x="87" y="257" type="line"/>
      <point x="411" y="257" type="line"/>
      <point x="411" y="299" type="line"/>
      <point x="87" y="299" type="line"/>
    </contour>
  </outline>
</glyph>
<glyph name="slash" format="2">
  <advance width="298"/>
  <unicode hex="002F"/>
  <outline>
    <contour>
      <point x="24" y="-60" type="line"/>
      <point x="69" y="-60" type="line"/>
      <point x="273" y="780" type="line"/>
      <point x="228" y="780" type="line"/>
    </contour>
  </outline>
</glyph>
<glyph name="five" format="2">
  <advance width="609"/>
  <unicode hex="0035"/>
  <outline>
    <contour>
      <point x="309" y="-16" type="curve" smooth="yes"/>
      <point x="471" y="-16"/>
      <point x="554" y="94"/>
      <point x="554" y="212" type="curve" smooth="yes"/>
      <point x="554" y="225" type="line" smooth="yes"/>
      <point x="554" y="343"/>
      <point x="472" y="454"/>
      <point x="310" y="454" type="curve" smooth="yes"/>
      <point x="237" y="454"/>
      <point x="182" y="427"/>
      <point x="137" y="383" type="curve"/>
      <point x="156" y="382" type="line"/>
      <point x="189" y="704" type="line"/>
      <point x="172" y="687" type="line"/>
      <point x="487" y="687" type="line"/>
      <point x="487" y="730" type="line"/>
      <point x="149" y="730" type="line"/>
      <point x="111" y="352" type="line"/>
      <point x="155" y="352" type="line"/>
      <point x="195" y="390"/>
      <point x="251" y="411"/>
      <point x="309" y="411" type="curve" smooth="yes"/>
      <point x="440" y="411"/>
      <point x="506" y="326"/>
      <point x="506" y="219" type="curve" smooth="yes"/>
      <point x="506" y="111"/>
      <point x="439" y="27"/>
      <point x="309" y="27" type="curve" smooth="yes"/>
      <point x="179" y="27"/>
      <point x="113" y="112"/>
      <point x="113" y="219" type="curve"/>
      <point x="65" y="219" type="line"/>
      <point x="65" y="94"/>
      <point x="147" y="-16"/>
    </contour>
  </outline>
</glyph>
<glyph name="six" format="2">
  <advance width="648"/>
  <unicode hex="0036"/>
  <outline>
    <contour>
      <point x="341" y="-17" type="curve" smooth="yes"/>
      <point x="503" y="-17"/>
      <point x="587" y="96"/>
      <point x="587" y="229" type="curve" smooth="yes"/>
      <point x="587" y="362"/>
      <point x="503" y="470"/>
      <point x="347" y="470" type="curve" smooth="yes"/>
      <point x="197" y="470"/>
      <point x="114" y="370"/>
      <point x="112" y="228" type="curve"/>
      <point x="127" y="251" type="line"/>
      <point x="127" y="354" type="line" smooth="yes"/>
      <point x="127" y="570"/>
      <point x="209" y="692"/>
      <point x="405" y="692" type="curve" smooth="yes"/>
      <point x="442" y="692"/>
      <point x="481" y="689"/>
      <point x="522" y="683" type="curve"/>
      <point x="522" y="726" type="line"/>
      <point x="482" y="732"/>
      <point x="446" y="735"/>
      <point x="409" y="735" type="curve" smooth="yes"/>
      <point x="187" y="735"/>
      <point x="84" y="602"/>
      <point x="84" y="357" type="curve" smooth="yes"/>
      <point x="84" y="323" type="line" smooth="yes"/>
      <point x="84" y="102"/>
      <point x="169" y="-17"/>
    </contour>
    <contour>
      <point x="341" y="27" type="curve" smooth="yes"/>
      <point x="206" y="27"/>
      <point x="140" y="127"/>
      <point x="140" y="228" type="curve" smooth="yes"/>
      <point x="140" y="343"/>
      <point x="213" y="428"/>
      <point x="343" y="428" type="curve" smooth="yes"/>
      <point x="474" y="428"/>
      <point x="540" y="340"/>
      <point x="540" y="229" type="curve" smooth="yes"/>
      <point x="540" y="118"/>
      <point x="473" y="27"/>
    </contour>
  </outline>
</glyph>
<glyph name="eight" format="2">
  <advance width="620"/>
  <unicode hex="0038"/>
  <outline>
    <contour>
      <point x="310" y="-16" type="curve" smooth="yes"/>
      <point x="468" y="-16"/>
      <point x="562" y="80"/>
      <point x="562" y="197" type="curve" smooth="yes"/>
      <point x="562" y="300"/>
      <point x="489" y="370"/>
      <point x="411" y="387" type="curve"/>
      <point x="411" y="397" type="line"/>
      <point x="474" y="417"/>
      <point x="536" y="468"/>
      <point x="536" y="561" type="curve" smooth="yes"/>
      <point x="536" y="673"/>
      <point x="445" y="748"/>
      <point x="310" y="748" type="curve" smooth="yes"/>
      <point x="175" y="748"/>
      <point x="84" y="673"/>
      <point x="84" y="561" type="curve" smooth="yes"/>
      <point x="84" y="468"/>
      <point x="147" y="417"/>
      <point x="208" y="397" type="curve"/>
      <point x="208" y="387" type="line"/>
      <point x="132" y="370"/>
      <point x="58" y="300"/>
      <point x="58" y="197" type="curve" smooth="yes"/>
      <point x="58" y="80"/>
      <point x="151" y="-16"/>
    </contour>
    <contour>
      <point x="310" y="27" type="curve" smooth="yes"/>
      <point x="178" y="27"/>
      <point x="105" y="102"/>
      <point x="105" y="198" type="curve" smooth="yes"/>
      <point x="105" y="297"/>
      <point x="179" y="371"/>
      <point x="310" y="371" type="curve" smooth="yes"/>
      <point x="441" y="371"/>
      <point x="515" y="297"/>
      <point x="515" y="198" type="curve" smooth="yes"/>
      <point x="515" y="102"/>
      <point x="442" y="27"/>
    </contour>
    <contour>
      <point x="310" y="411" type="curve" smooth="yes"/>
      <point x="204" y="411"/>
      <point x="131" y="465"/>
      <point x="131" y="559" type="curve" smooth="yes"/>
      <point x="131" y="651"/>
      <point x="200" y="705"/>
      <point x="310" y="705" type="curve" smooth="yes"/>
      <point x="419" y="705"/>
      <point x="488" y="651"/>
      <point x="488" y="559" type="curve" smooth="yes"/>
      <point x="488" y="465"/>
      <point x="416" y="411"/>
    </contour>
  </outline>
</glyph>
<glyph name="equal" format="2">
  <advance width="586"/>
  <unicode hex="003D"/>
  <outline>
    <contour>
      <point x="81" y="395" type="line"/>
      <point x="505" y="395" type="line"/>
      <point x="505" y="435" type="line"/>
      <point x="81" y="435" type="line"/>
    </contour>
    <contour>
      <point x="81" y="232" type="line"/>
      <point x="505" y="232" type="line"/>
      <point x="505" y="272" type="line"/>
      <point x="81" y="272" type="line"/>
    </contour>
  </outline>
</glyph>
<glyph name="C" format="2">
  <advance width="793"/>
  <unicode hex="0043"/>
  <anchor x="423" y="0" name="bottom"/>
  <anchor x="420" y="730" name="top"/>
  <outline>
    <contour>
      <point x="428" y="-16" type="curve" smooth="yes"/>
      <point x="608" y="-16"/>
      <point x="724" y="89"/>
      <point x="748" y="242" type="curve"/>
      <point x="699" y="242" type="line"/>
      <point x="676" y="105"/>
      <point x="571" y="29"/>
      <point x="428" y="29" type="curve" smooth="yes"/>
      <point x="217" y="29"/>
      <point x="116" y="198"/>
      <point x="116" y="366" type="curve" smooth="yes"/>
      <point x="116" y="546"/>
      <point x="221" y="704"/>
      <point x="420" y="704" type="curve" smooth="yes"/>
      <point x="558" y="704"/>
      <point x="667" y="628"/>
      <point x="684" y="491" type="curve"/>
      <point x="733" y="491" type="line"/>
      <point x="714" y="646"/>
      <point x="596" y="749"/>
      <point x="420" y="749" type="curve" smooth="yes"/>
      <point x="179" y="749"/>
      <point x="67" y="556"/>
      <point x="67" y="374" type="curve" smooth="yes"/>
      <point x="67" y="359" type="line" smooth="yes"/>
      <point x="67" y="189"/>
      <point x="174" y="-16"/>
    </contour>
  </outline>
</glyph>
<glyph name="F" format="2">
  <advance width="560"/>
  <unicode hex="0046"/>
  <outline>
    <contour>
      <point x="124" y="0" type="line"/>
      <point x="173" y="0" type="line"/>
      <point x="173" y="730" type="line"/>
      <point x="124" y="730" type="line"/>
    </contour>
    <contour>
      <point x="153" y="351" type="line"/>
      <point x="489" y="353" type="line"/>
      <point x="489" y="398" type="line"/>
      <point x="153" y="397" type="line"/>
    </contour>
    <contour>
      <point x="153" y="686" type="line"/>
      <point x="510" y="686" type="line"/>
      <point x="510" y="731" type="line"/>
      <point x="153" y="730" type="line"/>
    </contour>
  </outline>
</glyph>
<glyph name="K" format="2">
  <advance width="632"/>
  <unicode hex="004B"/>
  <anchor x="362" y="0" name="bottom"/>
  <anchor x="330" y="730" name="top"/>
  <outline>
    <contour>
      <point x="581" y="0" type="line"/>
      <point x="644" y="0" type="line"/>
      <point x="236" y="414" type="line"/>
      <point x="239" y="375" type="line"/>
      <point x="565" y="730" type="line"/>
      <point x="508" y="730" type="line"/>
      <point x="159" y="349" type="line"/>
      <point x="237" y="349" type="line"/>
    </contour>
    <contour>
      <point x="124" y="0" type="line"/>
      <point x="173" y="0" type="line"/>
      <point x="173" y="730" type="line"/>
      <point x="124" y="730" type="line"/>
    </contour>
  </outline>
</glyph>
<glyph name="O" format="2">
  <advance width="871"/>
  <unicode hex="004F"/>
  <anchor x="436" y="0" name="bottom"/>
  <anchor x="436" y="365" name="center"/>
  <anchor x="566" y="10" name="ogonek"/>
  <anchor x="436" y="730" name="top"/>
  <outline>
    <contour>
      <point x="436" y="-16" type="curve" smooth="yes"/>
      <point x="679" y="-16"/>
      <point x="804" y="182"/>
      <point x="804" y="359" type="curve" smooth="yes"/>
      <point x="804" y="374" type="line" smooth="yes"/>
      <point x="804" y="559"/>
      <point x="672" y="749"/>
      <point x="436" y="749" type="curve" smooth="yes"/>
      <point x="201" y="749"/>
      <point x="67" y="559"/>
      <point x="67" y="374" type="curve" smooth="yes"/>
      <point x="67" y="360" type="line" smooth="yes"/>
      <point x="67" y="182"/>
      <point x="193" y="-16"/>
    </contour>
    <contour>
      <point x="436" y="29" type="curve" smooth="yes"/>
      <point x="231" y="29"/>
      <point x="116" y="195"/>
      <point x="116" y="366" type="curve" smooth="yes"/>
      <point x="116" y="544"/>
      <point x="237" y="704"/>
      <point x="436" y="704" type="curve" smooth="yes"/>
      <point x="636" y="704"/>
      <point x="755" y="544"/>
      <point x="755" y="366" type="curve" smooth="yes"/>
      <point x="755" y="195"/>
      <point x="640" y="29"/>
    </contour>
  </outline>
</glyph>
<glyph name="R" format="2">
  <advance width="672"/>
  <unicode hex="0052"/>
  <anchor x="364" y="0" name="bottom"/>
  <anchor x="323" y="730" name="top"/>
  <outline>
    <contour>
      <point x="124" y="0" type="line"/>
      <point x="173" y="0" type="line"/>
      <point x="173" y="733" type="line"/>
      <point x="124" y="733" type="line"/>
    </contour>
    <contour>
      <point x="580" y="0" type="line"/>
      <point x="640" y="0" type="line"/>
      <point x="379" y="320" type="line"/>
      <point x="321" y="320" type="line"/>
    </contour>
    <contour>
      <point x="149" y="293" type="line"/>
      <point x="339" y="293" type="line" smooth="yes"/>
      <point x="500" y="293"/>
      <point x="574" y="383"/>
      <point x="574" y="507" type="curve" smooth="yes"/>
      <point x="574" y="518" type="line" smooth="yes"/>
      <point x="574" y="642"/>
      <point x="500" y="733"/>
      <point x="339" y="733" type="curve" smooth="yes"/>
      <point x="149" y="733" type="line"/>
      <point x="149" y="689" type="line"/>
      <point x="345" y="689" type="line" smooth="yes"/>
      <point x="474" y="689"/>
      <point x="525" y="611"/>
      <point x="525" y="513" type="curve" smooth="yes"/>
      <point x="525" y="415"/>
      <point x="474" y="337"/>
      <point x="345" y="337" type="curve" smooth="yes"/>
      <point x="149" y="337" type="line"/>
    </contour>
  </outline>
</glyph>
<glyph name="S" format="2">
  <advance width="706"/>
  <unicode hex="0053"/>
  <anchor x="353" y="0" name="bottom"/>
  <anchor x="352" y="730" name="top"/>
  <outline>
    <contour>
      <point x="354" y="-16" type="curve" smooth="yes"/>
      <point x="528" y="-16"/>
      <point x="626" y="72"/>
      <point x="626" y="194" type="curve" smooth="yes"/>
      <point x="626" y="300"/>
      <point x="547" y="382"/>
      <point x="402" y="395" type="curve" smooth="yes"/>
      <point x="314" y="403" type="line" smooth="yes"/>
      <point x="216" y="411"/>
      <point x="162" y="462"/>
      <point x="162" y="545" type="curve" smooth="yes"/>
      <point x="162" y="631"/>
      <point x="218" y="704"/>
      <point x="352" y="704" type="curve" smooth="yes"/>
      <point x="490" y="704"/>
      <point x="549" y="622"/>
      <point x="549" y="530" type="curve"/>
      <point x="597" y="530" type="line"/>
      <point x="597" y="651"/>
      <point x="514" y="749"/>
      <point x="352" y="749" type="curve" smooth="yes"/>
      <point x="193" y="749"/>
      <point x="113" y="658"/>
      <point x="113" y="545" type="curve" smooth="yes"/>
      <point x="113" y="437"/>
      <point x="188" y="368"/>
      <point x="308" y="358" type="curve" smooth="yes"/>
      <point x="396" y="350" type="line" smooth="yes"/>
      <point x="518" y="339"/>
      <point x="577" y="276"/>
      <point x="577" y="194" type="curve" smooth="yes"/>
      <point x="577" y="96"/>
      <point x="501" y="29"/>
      <point x="354" y="29" type="curve" smooth="yes"/>
      <point x="194" y="29"/>
      <point x="124" y="105"/>
      <point x="124" y="210" type="curve"/>
      <point x="76" y="210" type="line"/>
      <point x="76" y="79"/>
      <point x="167" y="-16"/>
    </contour>
  </outline>
</glyph>
<glyph name="U" format="2">
  <advance width="802"/>
  <unicode hex="0055"/>
  <anchor x="401" y="0" name="bottom"/>
  <anchor x="503" y="6" name="ogonek"/>
  <anchor x="401" y="730" name="top"/>
  <outline>
    <contour>
      <point x="401" y="-16" type="curve" smooth="yes"/>
      <point x="602" y="-16"/>
      <point x="692" y="108"/>
      <point x="692" y="279" type="curve" smooth="yes"/>
      <point x="692" y="730" type="line"/>
      <point x="643" y="730" type="line"/>
      <point x="643" y="273" type="line" smooth="yes"/>
      <point x="643" y="126"/>
      <point x="567" y="29"/>
      <point x="401" y="29" type="curve" smooth="yes"/>
      <point x="236" y="29"/>
      <point x="159" y="127"/>
      <point x="159" y="273" type="curve" smooth="yes"/>
      <point x="159" y="730" type="line"/>
      <point x="110" y="730" type="line"/>
      <point x="110" y="279" type="line" smooth="yes"/>
      <point x="110" y="108"/>
      <point x="201" y="-16"/>
    </contour>
  </outline>
</glyph>
<glyph name="Z" format="2">
  <advance width="660"/>
  <unicode hex="005A"/>
  <anchor x="350" y="0" name="bottom"/>
  <anchor x="336" y="365" name="center"/>
  <anchor x="332" y="730" name="top"/>
  <outline>
    <contour>
      <point x="79" y="0" type="line"/>
      <point x="605" y="0" type="line"/>
      <point x="605" y="43" type="line"/>
      <point x="122" y="43" type="line"/>
      <point x="139" y="24" type="line"/>
      <point x="119" y="71" type="line"/>
      <point x="113" y="42" type="line"/>
      <point x="588" y="661" type="line"/>
      <point x="588" y="730" type="line"/>
      <point x="85" y="730" type="line"/>
      <point x="85" y="687" type="line"/>
      <point x="543" y="687" type="line"/>
      <point x="529" y="705" type="line"/>
      <point x="547" y="661" type="line"/>
      <point x="553" y="688" type="line"/>
      <point x="79" y="69" type="line"/>
    </contour>
  </outline>
</glyph>
<glyph name="backslash" format="2">
  <advance width="298"/>
  <unicode hex="005C"/>
  <outline>
    <contour>
      <point x="235" y="-60" type="line"/>
      <point x="280" y="-60" type="line"/>
      <point x="62" y="780" type="line"/>
      <point x="18" y="780" type="line"/>
    </contour>
  </outline>
</glyph>
<glyph name="underscore" format="2">
  <advance width="563"/>
  <unicode hex="005F"/>
  <outline>
    <contour>
      <point x="0" y="-108" type="line"/>
      <point x="563" y="-108" type="line"/>
      <point x="563" y="-69" type="line"/>
      <point x="0" y="-69" type="line"/>
    </contour>
  </outline>
</glyph>
<glyph name="b" format="2">
  <advance width="678"/>
  <unicode hex="0062"/>
  <outline>
    <contour>
      <point x="364" y="-16" type="curve" smooth="yes"/>
      <point x="528" y="-16"/>
      <point x="618" y="123"/>
      <point x="618" y="258" type="curve" smooth="yes"/>
      <point x="618" y="267" type="line" smooth="yes"/>
      <point x="618" y="408"/>
      <point x="525" y="540"/>
      <point x="366" y="540" type="curve" smooth="yes"/>
      <point x="223" y="540"/>
      <point x="130" y="437"/>
      <point x="129" y="292" type="curve"/>
      <point x="152" y="353" type="line"/>
      <point x="152" y="730" type="line"/>
      <point x="104" y="730" type="line"/>
      <point x="104" y="0" type="line"/>
      <point x="143" y="0" type="line"/>
      <point x="143" y="231" type="line"/>
      <point x="124" y="231" type="line"/>
      <point x="126" y="96"/>
      <point x="216" y="-16"/>
    </contour>
    <contour>
      <point x="360" y="27" type="curve" smooth="yes"/>
      <point x="234" y="27"/>
      <point x="150" y="121"/>
      <point x="150" y="235" type="curve" smooth="yes"/>
      <point x="150" y="287" type="line" smooth="yes"/>
      <point x="150" y="408"/>
      <point x="237" y="497"/>
      <point x="360" y="497" type="curve" smooth="yes"/>
      <point x="492" y="497"/>
      <point x="570" y="391"/>
      <point x="570" y="262" type="curve" smooth="yes"/>
      <point x="570" y="139"/>
      <point x="495" y="27"/>
    </contour>
  </outline>
</glyph>
<glyph name="e" format="2">
  <advance width="605"/>
  <unicode hex="0065"/>
  <anchor x="317" y="0" name="bottom"/>
  <anchor x="461" y="32" name="ogonek"/>
  <anchor x="311" y="524" name="top"/>
  <outline>
    <contour>
      <point x="317" y="-16" type="curve" smooth="yes"/>
      <point x="442" y="-16"/>
      <point x="525" y="51"/>
      <point x="546" y="149" type="curve"/>
      <point x="500" y="149" type="line"/>
      <point x="485" y="82"/>
      <point x="420" y="27"/>
      <point x="317" y="27" type="curve" smooth="yes"/>
      <point x="173" y="27"/>
      <point x="105" y="137"/>
      <point x="105" y="264" type="curve" smooth="yes"/>
      <point x="105" y="390"/>
      <point x="175" y="497"/>
      <point x="311" y="497" type="curve" smooth="yes"/>
      <point x="437" y="497"/>
      <point x="509" y="404"/>
      <point x="509" y="281" type="curve"/>
      <point x="524" y="299" type="line"/>
      <point x="83" y="299" type="line"/>
      <point x="83" y="258" type="line"/>
      <point x="555" y="258" type="line"/>
      <point x="555" y="293" type="line" smooth="yes"/>
      <point x="555" y="419"/>
      <point x="468" y="540"/>
      <point x="311" y="540" type="curve" smooth="yes"/>
      <point x="143" y="540"/>
      <point x="60" y="405"/>
      <point x="60" y="269" type="curve" smooth="yes"/>
      <point x="60" y="260" type="line" smooth="yes"/>
      <point x="60" y="122"/>
      <point x="139" y="-16"/>
    </contour>
  </outline>
</glyph>
<glyph name="m" format="2">
  <advance width="955"/>
  <unicode hex="006D"/>
  <outline>
    <contour>
      <point x="104" y="0" type="line"/>
      <point x="152" y="0" type="line"/>
      <point x="152" y="317" type="line" smooth="yes"/>
      <point x="152" y="421"/>
      <point x="211" y="494"/>
      <point x="310" y="494" type="curve" smooth="yes"/>
      <point x="407" y="494"/>
      <point x="457" y="423"/>
      <point x="457" y="322" type="curve" smooth="yes"/>
      <point x="457" y="0" type="line"/>
      <point x="505" y="0" type="line"/>
      <point x="505" y="317" type="line" smooth="yes"/>
      <point x="505" y="421"/>
      <point x="563" y="494"/>
      <point x="663" y="494" type="curve" smooth="yes"/>
      <point x="760" y="494"/>
      <point x="809" y="423"/>
      <point x="809" y="322" type="curve" smooth="yes"/>
      <point x="809" y="0" type="line"/>
      <point x="857" y="0" type="line"/>
      <point x="857" y="310" type="line" smooth="yes"/>
      <point x="857" y="447"/>
      <point x="797" y="538"/>
      <point x="672" y="538" type="curve" smooth="yes"/>
      <point x="670" y="538" type="line" smooth="yes"/>
      <point x="544" y="538"/>
      <point x="483" y="443"/>
      <point x="483" y="310" type="curve"/>
      <point x="502" y="310" type="line"/>
      <point x="502" y="447"/>
      <point x="444" y="538"/>
      <point x="319" y="538" type="curve" smooth="yes"/>
      <point x="317" y="538" type="line" smooth="yes"/>
      <point x="191" y="538"/>
      <point x="131" y="443"/>
      <point x="131" y="310" type="curve"/>
      <point x="143" y="310" type="line"/>
      <point x="143" y="524" type="line"/>
      <point x="104" y="524" type="line"/>
    </contour>
  </outline>
</glyph>
<glyph name="u" format="2">
  <advance width="610"/>
  <unicode hex="0075"/>
  <anchor x="504" y="10" name="ogonek"/>
  <anchor x="297" y="524" name="top"/>
  <outline>
    <contour>
      <point x="283" y="-14" type="curve" smooth="yes"/>
      <point x="286" y="-14" type="line" smooth="yes"/>
      <point x="414" y="-14"/>
      <point x="478" y="78"/>
      <point x="478" y="210" type="curve"/>
      <point x="466" y="210" type="line"/>
      <point x="466" y="0" type="line"/>
      <point x="504" y="0" type="line"/>
      <point x="504" y="524" type="line"/>
      <point x="456" y="524" type="line"/>
      <point x="456" y="204" type="line" smooth="yes"/>
      <point x="456" y="101"/>
      <point x="393" y="30"/>
      <point x="292" y="30" type="curve" smooth="yes"/>
      <point x="192" y="30"/>
      <point x="139" y="99"/>
      <point x="139" y="199" type="curve" smooth="yes"/>
      <point x="139" y="524" type="line"/>
      <point x="91" y="524" type="line"/>
      <point x="91" y="209" type="line" smooth="yes"/>
      <point x="91" y="74"/>
      <point x="156" y="-14"/>
    </contour>
  </outline>
</glyph>
<glyph name="v" format="2">
  <advance width="533"/>
  <unicode hex="0076"/>
  <outline>
    <contour>
      <point x="226" y="0" type="line"/>
      <point x="274" y="0" type="line"/>
      <point x="84" y="524" type="line"/>
      <point x="35" y="524" type="line"/>
    </contour>
    <contour>
      <point x="241" y="0" type="line"/>
      <point x="309" y="0" type="line"/>
      <point x="309" y="42" type="line"/>
      <point x="241" y="42" type="line"/>
    </contour>
    <contour>
      <point x="276" y="0" type="line"/>
      <point x="322" y="0" type="line"/>
      <point x="493" y="524" type="line"/>
      <point x="445" y="524" type="line"/>
    </contour>
  </outline>
</glyph>
<glyph name="x" format="2">
  <advance width="532"/>
  <unicode hex="0078"/>
  <outline>
    <contour>
      <point x="37" y="0" type="line"/>
      <point x="87" y="0" type="line"/>
      <point x="259" y="236" type="line"/>
      <point x="272" y="236" type="line"/>
      <point x="448" y="0" type="line"/>
      <point x="501" y="0" type="line"/>
      <point x="286" y="286" type="line"/>
      <point x="292" y="266" type="line"/>
      <point x="470" y="524" type="line"/>
      <point x="419" y="524" type="line"/>
      <point x="272" y="307" type="line"/>
      <point x="259" y="307" type="line"/>
      <point x="105" y="524" type="line"/>
      <point x="52" y="524" type="line"/>
      <point x="244" y="256" type="line"/>
      <point x="239" y="277" type="line"/>
    </contour>
  </outline>
</glyph>
<glyph name="z" format="2">
  <advance width="481"/>
  <unicode hex="007A"/>
  <anchor x="252" y="0" name="bottom"/>
  <anchor x="246" y="267" name="center"/>
  <anchor x="243" y="524" name="top"/>
  <outline>
    <contour>
      <point x="62" y="0" type="line"/>
      <point x="440" y="0" type="line"/>
      <point x="440" y="40" type="line"/>
      <point x="106" y="40" type="line"/>
      <point x="115" y="35" type="line"/>
      <point x="103" y="54" type="line"/>
      <point x="96" y="37" type="line"/>
      <point x="424" y="461" type="line"/>
      <point x="424" y="524" type="line"/>
      <point x="60" y="524" type="line"/>
      <point x="60" y="484" type="line"/>
      <point x="381" y="484" type="line"/>
      <point x="372" y="488" type="line"/>
      <point x="384" y="469" type="line"/>
      <point x="390" y="487" type="line"/>
      <point x="62" y="63" type="line"/>
    </contour>
  </outline>
</glyph>
<glyph name="braceleft" format="2">
  <advance width="361"/>
  <unicode hex="007B"/>
  <outline>
    <contour>
      <point x="290" y="-182" type="curve" smooth="yes"/>
      <point x="306" y="-182" type="line"/>
      <point x="306" y="-142" type="line"/>
      <point x="290" y="-142" type="line" smooth="yes"/>
      <point x="217" y="-142"/>
      <point x="178" y="-103"/>
      <point x="178" y="-10" type="curve" smooth="yes"/>
      <point x="178" y="184" type="line" smooth="yes"/>
      <point x="178" y="248"/>
      <point x="149" y="284"/>
      <point x="101" y="294" type="curve"/>
      <point x="101" y="302" type="line"/>
      <point x="149" y="311"/>
      <point x="178" y="347"/>
      <point x="178" y="411" type="curve" smooth="yes"/>
      <point x="178" y="604" type="line" smooth="yes"/>
      <point x="178" y="698"/>
      <point x="217" y="736"/>
      <point x="290" y="736" type="curve" smooth="yes"/>
      <point x="306" y="736" type="line"/>
      <point x="306" y="776" type="line"/>
      <point x="290" y="776" type="line" smooth="yes"/>
      <point x="194" y="776"/>
      <point x="131" y="722"/>
      <point x="131" y="600" type="curve" smooth="yes"/>
      <point x="131" y="400" type="line" smooth="yes"/>
      <point x="131" y="350"/>
      <point x="101" y="328"/>
      <point x="68" y="328" type="curve"/>
      <point x="68" y="267" type="line"/>
      <point x="101" y="267"/>
      <point x="131" y="245"/>
      <point x="131" y="195" type="curve" smooth="yes"/>
      <point x="131" y="-6" type="line" smooth="yes"/>
      <point x="131" y="-128"/>
      <point x="194" y="-182"/>
    </contour>
  </outline>
</glyph>
<glyph name="currency" format="2">
  <advance width="647"/>
  <unicode hex="00A4"/>
  <outline>
    <contour>
      <point x="323" y="156" type="curve" smooth="yes"/>
      <point x="454" y="156"/>
      <point x="536" y="257"/>
      <point x="536" y="365" type="curve" smooth="yes"/>
      <point x="536" y="376" type="line" smooth="yes"/>
      <point x="536" y="487"/>
      <point x="454" y="585"/>
      <point x="323" y="585" type="curve" smooth="yes"/>
      <point x="193" y="585"/>
      <point x="110" y="487"/>
      <point x="110" y="376" type="curve" smooth="yes"/>
      <point x="110" y="365" type="line" smooth="yes"/>
      <point x="110" y="257"/>
      <point x="193" y="156"/>
    </contour>
    <contour>
      <point x="93" y="117" type="line"/>
      <point x="192" y="213" type="line"/>
      <point x="163" y="242" type="line"/>
      <point x="65" y="146" type="line"/>
    </contour>
    <contour>
      <point x="163" y="499" type="line"/>
      <point x="192" y="527" type="line"/>
      <point x="93" y="624" type="line"/>
      <point x="65" y="595" type="line"/>
    </contour>
    <contour>
      <point x="323" y="197" type="curve" smooth="yes"/>
      <point x="220" y="197"/>
      <point x="154" y="274"/>
      <point x="154" y="370" type="curve" smooth="yes"/>
      <point x="154" y="470"/>
      <point x="221" y="544"/>
      <point x="323" y="544" type="curve" smooth="yes"/>
      <point x="426" y="544"/>
      <point x="492" y="470"/>
      <point x="492" y="370" type="curve" smooth="yes"/>
      <point x="492" y="274"/>
      <point x="426" y="197"/>
    </contour>
    <contour>
      <point x="553" y="117" type="line"/>
      <point x="582" y="146" type="line"/>
      <point x="484" y="242" type="line"/>
      <point x="455" y="213" type="line"/>
    </contour>
    <contour>
      <point x="484" y="499" type="line"/>
      <point x="582" y="595" type="line"/>
      <point x="553" y="624" type="line"/>
      <point x="455" y="527" type="line"/>
    </contour>
  </outline>
</glyph>
<glyph name="copyright" format="2">
  <advance width="730"/>
  <unicode hex="00A9"/>
  <outline>
    <contour>
      <point x="365" y="128" type="curve" smooth="yes"/>
      <point x="560" y="128"/>
      <point x="671" y="272"/>
      <point x="671" y="433" type="curve" smooth="yes"/>
      <point x="671" y="445" type="line" smooth="yes"/>
      <point x="671" y="607"/>
      <point x="559" y="749"/>
      <point x="365" y="749" type="curve" smooth="yes"/>
      <point x="171" y="749"/>
      <point x="59" y="607"/>
      <point x="59" y="445" type="curve" smooth="yes"/>
      <point x="59" y="433" type="line" smooth="yes"/>
      <point x="59" y="272"/>
      <point x="170" y="128"/>
    </contour>
    <contour>
      <point x="365" y="163" type="curve" smooth="yes"/>
      <point x="194" y="163"/>
      <point x="97" y="287"/>
      <point x="97" y="438" type="curve" smooth="yes"/>
      <point x="97" y="591"/>
      <point x="194" y="714"/>
      <point x="365" y="714" type="curve" smooth="yes"/>
      <point x="535" y="714"/>
      <point x="633" y="591"/>
      <point x="633" y="438" type="curve" smooth="yes"/>
      <point x="633" y="287"/>
      <point x="535" y="163"/>
    </contour>
    <contour>
      <point x="370" y="261" type="curve" smooth="yes"/>
      <point x="444" y="261"/>
      <point x="504" y="308"/>
      <point x="511" y="379" type="curve"/>
      <point x="473" y="379" type="line"/>
      <point x="467" y="331"/>
      <point x="429" y="297"/>
      <point x="370" y="297" type="curve" smooth="yes"/>
      <point x="289" y="297"/>
      <point x="254" y="362"/>
      <point x="254" y="441" type="curve" smooth="yes"/>
      <point x="254" y="523"/>
      <point x="291" y="579"/>
      <point x="370" y="579" type="curve" smooth="yes"/>
      <point x="432" y="579"/>
      <point x="465" y="544"/>
      <point x="471" y="493" type="curve"/>
      <point x="509" y="493" type="line"/>
      <point x="501" y="569"/>
      <point x="446" y="616"/>
      <point x="370" y="616" type="curve" smooth="yes"/>
      <point x="269" y="616"/>
      <point x="214" y="537"/>
      <point x="214" y="446" type="curve" smooth="yes"/>
      <point x="214" y="435" type="line" smooth="yes"/>
      <point x="214" y="349"/>
      <point x="267" y="261"/>
    </contour>
  </outline>
</glyph>
<glyph name="degree" format="2">
  <advance width="327"/>
  <unicode hex="00B0"/>
  <outline>
    <contour>
      <point x="163" y="470" type="curve" smooth="yes"/>
      <point x="238" y="470"/>
      <point x="294" y="525"/>
      <point x="294" y="600" type="curve" smooth="yes"/>
      <point x="294" y="676"/>
      <point x="238" y="730"/>
      <point x="163" y="730" type="curve" smooth="yes"/>
      <point x="90" y="730"/>
      <point x="33" y="676"/>
      <point x="33" y="600" type="curve" smooth="yes"/>
      <point x="33" y="525"/>
      <point x="90" y="470"/>
    </contour>
    <contour>
      <point x="163" y="507" type="curve" smooth="yes"/>
      <point x="109" y="507"/>
      <point x="72" y="546"/>
      <point x="72" y="600" type="curve" smooth="yes"/>
      <point x="72" y="654"/>
      <point x="109" y="694"/>
      <point x="163" y="694" type="curve" smooth="yes"/>
      <point x="218" y="694"/>
      <point x="255" y="654"/>
      <point x="255" y="600" type="curve" smooth="yes"/>
      <point x="255" y="546"/>
      <point x="218" y="507"/>
    </contour>
  </outline>
</glyph>
<glyph name="paragraph" format="2">
  <advance width="594"/>
  <unicode hex="00B6"/>
  <outline>
    <contour>
      <point x="202" y="423" type="curve" smooth="yes"/>
      <point x="311" y="423" type="line"/>
      <point x="311" y="734" type="line"/>
      <point x="202" y="734" type="line" smooth="yes"/>
      <point x="84" y="734"/>
      <point x="15" y="676"/>
      <point x="15" y="584" type="curve" smooth="yes"/>
      <point x="15" y="573" type="line" smooth="yes"/>
      <point x="15" y="481"/>
      <point x="84" y="423"/>
    </contour>
    <contour>
      <point x="294" y="0" type="line"/>
      <point x="342" y="0" type="line"/>
      <point x="342" y="734" type="line"/>
      <point x="294" y="734" type="line"/>
    </contour>
    <contour>
      <point x="422" y="0" type="line"/>
      <point x="470" y="0" type="line"/>
      <point x="470" y="734" type="line"/>
      <point x="422" y="734" type="line"/>
    </contour>
  </outline>
</glyph>
<glyph name="AE" format="2">
  <advance width="965"/>
  <unicode hex="00C6"/>
  <outline>
    <contour>
      <point x="23" y="0" type="line"/>
      <point x="71" y="0" type="line"/>
      <point x="353" y="703" type="line"/>
      <point x="323" y="686" type="line"/>
      <point x="501" y="686" type="line"/>
      <point x="501" y="730" type="line"/>
      <point x="318" y="730" type="line"/>
    </contour>
    <contour>
      <point x="173" y="297" type="line"/>
      <point x="501" y="297" type="line"/>
      <point x="501" y="341" type="line"/>
      <point x="189" y="341" type="line"/>
    </contour>
    <contour>
      <point x="486" y="0" type="line"/>
      <point x="535" y="0" type="line"/>
      <point x="535" y="730" type="line"/>
      <point x="486" y="730" type="line"/>
    </contour>
    <contour>
      <point x="519" y="0" type="line"/>
      <point x="894" y="0" type="line"/>
      <point x="894" y="45" type="line"/>
      <point x="519" y="45" type="line"/>
    </contour>
    <contour>
      <point x="519" y="346" type="line"/>
      <point x="857" y="346" type="line"/>
      <point x="857" y="390" type="line"/>
      <point x="519" y="390" type="line"/>
    </contour>
    <contour>
      <point x="519" y="686" type="line"/>
      <point x="881" y="686" type="line"/>
      <point x="881" y="730" type="line"/>
      <point x="519" y="730" type="line"/>
    </contour>
  </outline>
</glyph>
<glyph name="multiply" format="2">
  <advance width="586"/>
  <unicode hex="00D7"/>
  <outline>
    <contour>
      <point x="473" y="138" type="line"/>
      <point x="85" y="525" type="line"/>
      <point x="113" y="553" type="line"/>
      <point x="501" y="167" type="line"/>
    </contour>
    <contour>
      <point x="112" y="139" type="line"/>
      <point x="85" y="167" type="line"/>
      <point x="474" y="552" type="line"/>
      <point x="501" y="525" type="line"/>
    </contour>
  </outline>
</glyph>
<glyph name="Oslash" format="2">
  <advance width="871"/>
  <unicode hex="00D8"/>
  <anchor x="436" y="0" name="bottom"/>
  <anchor x="436" y="365" name="center"/>
  <anchor x="566" y="10" name="ogonek"/>
  <anchor x="436" y="730" name="top"/>
  <outline>
    <contour>
      <point x="127" y="-37" type="line"/>
      <point x="178" y="-37" type="line"/>
      <point x="743" y="766" type="line"/>
      <point x="692" y="766" type="line"/>
    </contour>
    <component base="O"/>
  </outline>
</glyph>
<glyph name="Thorn" format="2">
  <advance width="600"/>
  <unicode hex="00DE"/>
  <outline>
    <contour>
      <point x="153" y="152" type="line"/>
      <point x="312" y="152" type="line" smooth="yes"/>
      <point x="477" y="152"/>
      <point x="550" y="250"/>
      <point x="550" y="366" type="curve" smooth="yes"/>
      <point x="550" y="377" type="line" smooth="yes"/>
      <point x="550" y="493"/>
      <point x="477" y="592"/>
      <point x="312" y="592" type="curve" smooth="yes"/>
      <point x="153" y="592" type="line"/>
      <point x="153" y="548" type="line"/>
      <point x="317" y="548" type="line" smooth="yes"/>
      <point x="448" y="548"/>
      <point x="501" y="471"/>
      <point x="501" y="372" type="curve" smooth="yes"/>
      <point x="501" y="273"/>
      <point x="448" y="196"/>
      <point x="317" y="196" type="curve" smooth="yes"/>
      <point x="153" y="196" type="line"/>
    </contour>
    <contour>
      <point x="124" y="0" type="line"/>
      <point x="173" y="0" type="line"/>
      <point x="173" y="732" type="line"/>
      <point x="124" y="732" type="line"/>
    </contour>
  </outline>
</glyph>
<glyph name="germandbls" format="2">
  <advance width="594"/>
  <unicode hex="00DF"/>
  <outline>
    <contour>
      <point x="321" y="-11" type="curve" smooth="yes"/>
      <point x="466" y="-11"/>
      <point x="543" y="76"/>
      <point x="543" y="190" type="curve" smooth="yes"/>
      <point x="543" y="328"/>
      <point x="441" y="409"/>
      <point x="292" y="409" type="curve"/>
      <point x="290" y="388" type="line"/>
      <point x="398" y="388"/>
      <point x="470" y="458"/>
      <point x="470" y="560" type="curve" smooth="yes"/>
      <point x="470" y="657"/>
      <point x="406" y="741"/>
      <point x="294" y="741" type="curve" smooth="yes"/>
      <point x="290" y="741" type="line" smooth="yes"/>
      <point x="174" y="741"/>
      <point x="107" y="655"/>
      <point x="107" y="513" type="curve" smooth="yes"/>
      <point x="107" y="0" type="line"/>
      <point x="155" y="0" type="line"/>
      <point x="155" y="521" type="line" smooth="yes"/>
      <point x="155" y="620"/>
      <point x="198" y="698"/>
      <point x="292" y="698" type="curve" smooth="yes"/>
      <point x="382" y="698"/>
      <point x="422" y="627"/>
      <point x="422" y="559" type="curve" smooth="yes"/>
      <point x="422" y="490"/>
      <point x="379" y="419"/>
      <point x="289" y="419" type="curve" smooth="yes"/>
      <point x="254" y="419" type="line"/>
      <point x="254" y="378" type="line"/>
      <point x="295" y="378" type="line" smooth="yes"/>
      <point x="408" y="378"/>
      <point x="495" y="308"/>
      <point x="495" y="193" type="curve" smooth="yes"/>
      <point x="495" y="101"/>
      <point x="439" y="32"/>
      <point x="321" y="32" type="curve" smooth="yes"/>
      <point x="291" y="32"/>
      <point x="251" y="37"/>
      <point x="223" y="42" type="curve"/>
      <point x="223" y="-1" type="line"/>
      <point x="249" y="-6"/>
      <point x="288" y="-11"/>
    </contour>
    <contour>
      <point x="47" y="475" type="line"/>
      <point x="129" y="475" type="line"/>
      <point x="129" y="517" type="line"/>
      <point x="47" y="517" type="line"/>
    </contour>
  </outline>
</glyph>
<glyph name="eth" format="2">
  <advance width="627"/>
  <unicode hex="00F0"/>
  <outline>
    <contour>
      <point x="313" y="-17" type="curve" smooth="yes"/>
      <point x="480" y="-17"/>
      <point x="563" y="101"/>
      <point x="563" y="279" type="curve" smooth="yes"/>
      <point x="563" y="294" type="line" smooth="yes"/>
      <point x="563" y="612"/>
      <point x="486" y="724"/>
      <point x="291" y="724" type="curve" smooth="yes"/>
      <point x="257" y="724"/>
      <point x="222" y="721"/>
      <point x="193" y="716" type="curve"/>
      <point x="193" y="674" type="line"/>
      <point x="225" y="679"/>
      <point x="260" y="682"/>
      <point x="291" y="682" type="curve" smooth="yes"/>
      <point x="361" y="682"/>
      <point x="400" y="668"/>
      <point x="433" y="643" type="curve" smooth="yes"/>
      <point x="491" y="599"/>
      <point x="518" y="488"/>
      <point x="520" y="337" type="curve"/>
      <point x="528" y="337" type="line"/>
      <point x="519" y="429"/>
      <point x="451" y="516"/>
      <point x="310" y="516" type="curve" smooth="yes"/>
      <point x="145" y="516"/>
      <point x="60" y="395"/>
      <point x="60" y="261" type="curve" smooth="yes"/>
      <point x="60" y="239" type="line" smooth="yes"/>
      <point x="60" y="109"/>
      <point x="144" y="-17"/>
    </contour>
    <contour>
      <point x="313" y="27" type="curve" smooth="yes"/>
      <point x="175" y="27"/>
      <point x="108" y="126"/>
      <point x="108" y="250" type="curve" smooth="yes"/>
      <point x="108" y="377"/>
      <point x="174" y="473"/>
      <point x="313" y="473" type="curve" smooth="yes"/>
      <point x="447" y="473"/>
      <point x="518" y="381"/>
      <point x="518" y="250" type="curve" smooth="yes"/>
      <point x="518" y="124"/>
      <point x="454" y="27"/>
    </contour>
    <contour>
      <point x="345" y="548" type="line"/>
      <point x="558" y="720" type="line"/>
      <point x="538" y="746" type="line"/>
      <point x="324" y="574" type="line"/>
    </contour>
  </outline>
</glyph>
<glyph name="divide" format="2">
  <advance width="586"/>
  <unicode hex="00F7"/>
  <outline>
    <contour>
      <point x="81" y="325" type="line"/>
      <point x="505" y="325" type="line"/>
      <point x="505" y="365" type="line"/>
      <point x="81" y="365" type="line"/>
    </contour>
    <contour>
      <point x="260" y="117" type="line"/>
      <point x="325" y="117" type="line"/>
      <point x="325" y="189" type="line"/>
      <point x="260" y="189" type="line"/>
    </contour>
    <contour>
      <point x="260" y="501" type="line"/>
      <point x="325" y="501" type="line"/>
      <point x="325" y="572" type="line"/>
      <point x="260" y="572" type="line"/>
    </contour>
  </outline>
</glyph>
<glyph name="thorn" format="2">
  <advance width="678"/>
  <unicode hex="00FE"/>
  <outline>
    <contour>
      <point x="104" y="-200" type="line"/>
      <point x="152" y="-200" type="line"/>
      <point x="152" y="164" type="line"/>
      <point x="126" y="233" type="line"/>
      <point x="128" y="92"/>
      <point x="221" y="-16"/>
      <point x="366" y="-16" type="curve" smooth="yes"/>
      <point x="527" y="-16"/>
      <point x="618" y="120"/>
      <point x="618" y="257" type="curve" smooth="yes"/>
      <point x="618" y="267" type="line" smooth="yes"/>
      <point x="618" y="410"/>
      <point x="526" y="541"/>
      <point x="367" y="541" type="curve" smooth="yes"/>
      <point x="226" y="541"/>
      <point x="129" y="439"/>
      <point x="127" y="297" type="curve"/>
      <point x="152" y="359" type="line"/>
      <point x="152" y="730" type="line"/>
      <point x="104" y="730" type="line"/>
    </contour>
    <contour>
      <point x="360" y="28" type="curve" smooth="yes"/>
      <point x="234" y="28"/>
      <point x="150" y="121"/>
      <point x="150" y="236" type="curve" smooth="yes"/>
      <point x="150" y="288" type="line" smooth="yes"/>
      <point x="150" y="409"/>
      <point x="238" y="497"/>
      <point x="360" y="497" type="curve" smooth="yes"/>
      <point x="492" y="497"/>
      <point x="570" y="392"/>
      <point x="570" y="263" type="curve" smooth="yes"/>
      <point x="570" y="141"/>
      <point x="495" y="28"/>
    </contour>
  </outline>
</glyph>
<glyph name="Hbar" format="2">
  <advance width="809"/>
  <unicode hex="0126"/>
  <anchor x="404" y="0" name="bottom"/>
  <anchor x="404" y="606" name="center"/>
  <anchor x="404" y="730" name="top"/>
  <outline>
    <contour>
      <point x="54" y="583" type="line"/>
      <point x="755" y="583" type="line"/>
      <point x="755" y="624" type="line"/>
      <point x="54" y="624" type="line"/>
    </contour>
    <component base="H"/>
  </outline>
</glyph>
<glyph name="Lslash" format="2">
  <advance width="534"/>
  <unicode hex="0141"/>
  <anchor x="321" y="-1" name="bottom"/>
  <anchor x="149" y="365" name="center"/>
  <anchor x="148" y="730" name="top"/>
  <anchor x="251" y="541" name="topright"/>
  <outline>
    <contour>
      <point x="159" y="313" type="line"/>
      <point x="361" y="431" type="line"/>
      <point x="361" y="474" type="line"/>
      <point x="159" y="356" type="line"/>
    </contour>
    <contour>
      <point x="38" y="243" type="line"/>
      <point x="137" y="301" type="line"/>
      <point x="137" y="345" type="line"/>
      <point x="38" y="287" type="line"/>
    </contour>
    <component base="L"/>
  </outline>
</glyph>
<glyph name="Eng" format="2">
  <advance width="829"/>
  <unicode hex="014A"/>
  <outline>
    <contour>
      <point x="417" y="-212" type="line"/>
      <point x="526" y="-212" type="line" smooth="yes"/>
      <point x="643" y="-212"/>
      <point x="705" y="-152"/>
      <point x="705" y="-15" type="curve" smooth="yes"/>
      <point x="705" y="730" type="line"/>
      <point x="657" y="730" type="line"/>
      <point x="657" y="31" type="line"/>
      <point x="677" y="45" type="line"/>
      <point x="645" y="45" type="line"/>
      <point x="210" y="730" type="line"/>
      <point x="124" y="730" type="line"/>
      <point x="124" y="0" type="line"/>
      <point x="171" y="0" type="line"/>
      <point x="171" y="699" type="line"/>
      <point x="151" y="686" type="line"/>
      <point x="183" y="686" type="line"/>
      <point x="617" y="2" type="line"/>
      <point x="676" y="2" type="line"/>
      <point x="657" y="14" type="line"/>
      <point x="657" y="-25" type="line" smooth="yes"/>
      <point x="657" y="-119"/>
      <point x="618" y="-168"/>
      <point x="529" y="-168" type="curve" smooth="yes"/>
      <point x="417" y="-168" type="line"/>
    </contour>
  </outline>
</glyph>
<glyph name="oe" format="2">
  <advance width="1096"/>
  <unicode hex="0153"/>
  <outline>
    <contour>
      <point x="330" y="-16" type="curve" smooth="yes"/>
      <point x="507" y="-16"/>
      <point x="592" y="123"/>
      <point x="592" y="259" type="curve"/>
      <point x="558" y="259" type="line"/>
      <point x="558" y="123"/>
      <point x="630" y="-16"/>
      <point x="808" y="-16" type="curve" smooth="yes"/>
      <point x="934" y="-16"/>
      <point x="1016" y="50"/>
      <point x="1038" y="149" type="curve"/>
      <point x="991" y="149" type="line"/>
      <point x="977" y="81"/>
      <point x="911" y="28"/>
      <point x="808" y="28" type="curve" smooth="yes"/>
      <point x="664" y="28"/>
      <point x="597" y="137"/>
      <point x="597" y="264" type="curve" smooth="yes"/>
      <point x="597" y="390"/>
      <point x="667" y="496"/>
      <point x="802" y="496" type="curve" smooth="yes"/>
      <point x="928" y="496"/>
      <point x="1001" y="404"/>
      <point x="1001" y="281" type="curve"/>
      <point x="1016" y="299" type="line"/>
      <point x="585" y="299" type="line"/>
      <point x="585" y="258" type="line"/>
      <point x="1046" y="258" type="line"/>
      <point x="1046" y="293" type="line" smooth="yes"/>
      <point x="1046" y="420"/>
      <point x="959" y="540"/>
      <point x="802" y="540" type="curve" smooth="yes"/>
      <point x="635" y="540"/>
      <point x="558" y="406"/>
      <point x="558" y="268" type="curve"/>
      <point x="592" y="268" type="line"/>
      <point x="592" y="405"/>
      <point x="502" y="540"/>
      <point x="330" y="540" type="curve" smooth="yes"/>
      <point x="159" y="540"/>
      <point x="60" y="405"/>
      <point x="60" y="266" type="curve" smooth="yes"/>
      <point x="60" y="257" type="line" smooth="yes"/>
      <point x="60" y="122"/>
      <point x="155" y="-16"/>
    </contour>
    <contour>
      <point x="330" y="28" type="curve" smooth="yes"/>
      <point x="187" y="28"/>
      <point x="108" y="137"/>
      <point x="108" y="262" type="curve" smooth="yes"/>
      <point x="108" y="390"/>
      <point x="190" y="496"/>
      <point x="330" y="496" type="curve" smooth="yes"/>
      <point x="469" y="496"/>
      <point x="552" y="389"/>
      <point x="552" y="262" type="curve" smooth="yes"/>
      <point x="552" y="138"/>
      <point x="473" y="28"/>
    </contour>
  </outline>
</glyph>
<glyph name="Tbar" format="2">
  <advance width="581"/>
  <unicode hex="0166"/>
  <anchor x="290" y="0" name="bottom"/>
  <anchor x="290" y="365" name="center"/>
  <anchor x="290" y="730" name="top"/>
  <outline>
    <contour>
      <point x="98" y="352" type="line"/>
      <point x="483" y="352" type="line"/>
      <point x="483" y="393" type="line"/>
      <point x="98" y="393" type="line"/>
    </contour>
    <component base="T"/>
  </outline>
</glyph>
<glyph name="acutecomb" format="2">
  <unicode hex="0301"/>
  <anchor x="31" y="524" name="_top"/>
  <anchor x="109" y="800" name="top"/>
  <outline>
    <contour>
      <point x="0" y="612" type="line"/>
      <point x="44" y="612" type="line"/>
      <point x="136" y="800" type="line"/>
      <point x="85" y="800" type="line"/>
    </contour>
  </outline>
</glyph>
<glyph name="circumflexcomb" format="2">
  <unicode hex="0302"/>
  <anchor x="139" y="524" name="_top"/>
  <anchor x="139" y="800" name="top"/>
  <outline>
    <contour>
      <point x="0" y="612" type="line"/>
      <point x="44" y="612" type="line"/>
      <point x="135" y="771" type="line"/>
      <point x="143" y="771" type="line"/>
      <point x="235" y="612" type="line"/>
      <point x="278" y="612" type="line"/>
      <point x="171" y="800" type="line"/>
      <point x="107" y="800" type="line"/>
    </contour>
  </outline>
</glyph>
<glyph name="macroncomb" format="2">
  <unicode hex="0304"/>
  <anchor x="120" y="524" name="_top"/>
  <anchor x="120" y="820" name="top"/>
  <outline>
    <contour>
      <point x="0" y="677" type="line"/>
      <point x="239" y="677" type="line"/>
      <point x="239" y="715" type="line"/>
      <point x="0" y="715" type="line"/>
    </contour>
  </outline>
</glyph>
<glyph name="hungarumlautcomb" format="2">
  <unicode hex="030B"/>
  <anchor x="98" y="524" name="_top"/>
  <anchor x="159" y="800" name="top"/>
  <outline>
    <contour>
      <point x="148" y="612" type="line"/>
      <point x="189" y="612" type="line"/>
      <point x="264" y="800" type="line"/>
      <point x="216" y="800" type="line"/>
    </contour>
    <contour>
      <point x="0" y="612" type="line"/>
      <point x="41" y="612" type="line"/>
      <point x="116" y="800" type="line"/>
      <point x="68" y="800" type="line"/>
    </contour>
  </outline>
</glyph>
<glyph name="commaturnedabovecomb" format="2">
  <unicode hex="0312"/>
  <anchor x="49" y="524" name="_top"/>
  <anchor x="48" y="826" name="top"/>
  <outline>
    <contour>
      <point x="55" y="607" type="curve" smooth="yes"/>
      <point x="80" y="607"/>
      <point x="97" y="623"/>
      <point x="97" y="648" type="curve" smooth="yes"/>
      <point x="97" y="674"/>
      <point x="80" y="688"/>
      <point x="59" y="688" type="curve" smooth="yes"/>
      <point x="38" y="688"/>
      <point x="27" y="676"/>
      <point x="22" y="661" type="curve"/>
      <point x="33" y="661" type="line"/>
      <point x="33" y="699" type="line" smooth="yes"/>
      <point x="32" y="759"/>
      <point x="54" y="785"/>
      <point x="98" y="785" type="curve" smooth="yes"/>
      <point x="103" y="785" type="line"/>
      <point x="103" y="815" type="line"/>
      <point x="98" y="815" type="line" smooth="yes"/>
      <point x="36" y="815"/>
      <point x="0" y="780"/>
      <point x="0" y="696" type="curve" smooth="yes"/>
      <point x="0" y="692" type="line" smooth="yes"/>
      <point x="0" y="633"/>
      <point x="22" y="607"/>
    </contour>
  </outline>
</glyph>
<glyph name="cedillacomb" format="2">
  <unicode hex="0327"/>
  <anchor x="120" y="0" name="_bottom"/>
  <anchor x="129" y="-300" name="bottom"/>
  <outline>
    <contour>
      <point x="126" y="-227" type="curve" smooth="yes"/>
      <point x="194" y="-227"/>
      <point x="234" y="-193"/>
      <point x="234" y="-141" type="curve" smooth="yes"/>
      <point x="234" y="-94"/>
      <point x="196" y="-61"/>
      <point x="130" y="-61" type="curve" smooth="yes"/>
      <point x="118" y="-61" type="line"/>
      <point x="136" y="-85" type="line"/>
      <point x="136" y="10" type="line"/>
      <point x="102" y="10" type="line"/>
      <point x="102" y="-95" type="line"/>
      <point x="131" y="-95" type="line" smooth="yes"/>
      <point x="176" y="-95"/>
      <point x="194" y="-115"/>
      <point x="194" y="-142" type="curve" smooth="yes"/>
      <point x="194" y="-174"/>
      <point x="171" y="-190"/>
      <point x="126" y="-190" type="curve" smooth="yes"/>
      <point x="104" y="-190"/>
      <point x="79" y="-187"/>
      <point x="59" y="-182" type="curve"/>
      <point x="59" y="-219" type="line"/>
      <point x="77" y="-224"/>
      <point x="101" y="-227"/>
    </contour>
  </outline>
</glyph>
<glyph name="strokeshortcomb" format="2">
  <unicode hex="0335"/>
  <anchor x="150" y="267" name="_center"/>
  <outline>
    <contour>
      <point x="-10" y="249" type="line"/>
      <point x="311" y="249" type="line"/>
      <point x="311" y="286" type="line"/>
      <point x="-10" y="286" type="line"/>
    </contour>
  </outline>
</glyph>
<glyph name="riel-khmer" format="2">
  <advance width="504"/>
  <unicode hex="17DB"/>
  <outline>
    <contour>
      <point x="257" y="-4" type="curve" smooth="yes"/>
      <point x="320" y="-4" type="line"/>
      <point x="320" y="384" type="line"/>
      <point x="275" y="384" type="line"/>
      <point x="275" y="17" type="line"/>
      <point x="300" y="37" type="line"/>
      <point x="254" y="37" type="line" smooth="yes"/>
      <point x="160" y="37"/>
      <point x="121" y="72"/>
      <point x="121" y="131" type="curve" smooth="yes"/>
      <point x="121" y="201"/>
      <point x="178" y="232"/>
      <point x="282" y="232" type="curve"/>
      <point x="282" y="273" type="line"/>
      <point x="156" y="273"/>
      <point x="77" y="225"/>
      <point x="77" y="130" type="curve" smooth="yes"/>
      <point x="77" y="44"/>
      <point x="144" y="-4"/>
    </contour>
    <contour>
      <point x="128" y="371" type="line"/>
      <point x="454" y="371" type="line"/>
      <point x="454" y="409" type="line"/>
      <point x="128" y="409" type="line"/>
    </contour>
    <contour>
      <point x="275" y="396" type="line"/>
      <point x="320" y="396" type="line"/>
      <point x="320" y="437" type="line" smooth="yes"/>
      <point x="320" y="482"/>
      <point x="308" y="505"/>
      <point x="270" y="531" type="curve" smooth="yes"/>
      <point x="236" y="553"/>
      <point x="200" y="575"/>
      <point x="182" y="588" type="curve" smooth="yes"/>
      <point x="162" y="603"/>
      <point x="154" y="625"/>
      <point x="168" y="656" type="curve" smooth="yes"/>
      <point x="180" y="686"/>
      <point x="201" y="694"/>
      <point x="245" y="694" type="curve" smooth="yes"/>
      <point x="296" y="694"/>
      <point x="334" y="689"/>
      <point x="382" y="682" type="curve"/>
      <point x="382" y="724" type="line"/>
      <point x="336" y="731"/>
      <point x="295" y="735"/>
      <point x="250" y="735" type="curve" smooth="yes"/>
      <point x="184" y="735"/>
      <point x="148" y="719"/>
      <point x="127" y="675" type="curve" smooth="yes"/>
      <point x="107" y="631"/>
      <point x="114" y="585"/>
      <point x="156" y="556" type="curve" smooth="yes"/>
      <point x="179" y="539"/>
      <point x="213" y="518"/>
      <point x="242" y="499" type="curve" smooth="yes"/>
      <point x="268" y="480"/>
      <point x="275" y="465"/>
      <point x="275" y="437" type="curve" smooth="yes"/>
    </contour>
  </outline>
</glyph>
<glyph name="endash" format="2">
  <advance width="499"/>
  <unicode hex="2013"/>
  <outline>
    <contour>
      <point x="18" y="257" type="line"/>
      <point x="481" y="257" type="line"/>
      <point x="481" y="299" type="line"/>
      <point x="18" y="299" type="line"/>
    </contour>
  </outline>
</glyph>
<glyph name="quoteright" format="2">
  <advance width="231"/>
  <unicode hex="2019"/>
  <outline>
    <contour>
      <point x="54" y="462" type="line"/>
      <point x="63" y="462" type="line" smooth="yes"/>
      <point x="135" y="462"/>
      <point x="181" y="492"/>
      <point x="181" y="630" type="curve" smooth="yes"/>
      <point x="181" y="648" type="line" smooth="yes"/>
      <point x="181" y="713"/>
      <point x="156" y="735"/>
      <point x="123" y="735" type="curve" smooth="yes"/>
      <point x="95" y="735"/>
      <point x="79" y="717"/>
      <point x="79" y="691" type="curve" smooth="yes"/>
      <point x="79" y="662"/>
      <point x="97" y="645"/>
      <point x="124" y="645" type="curve" smooth="yes"/>
      <point x="138" y="645"/>
      <point x="150" y="649"/>
      <point x="157" y="654" type="curve"/>
      <point x="146" y="674" type="line"/>
      <point x="146" y="618" type="line" smooth="yes"/>
      <point x="146" y="522"/>
      <point x="120" y="496"/>
      <point x="62" y="496" type="curve" smooth="yes"/>
      <point x="54" y="496" type="line"/>
    </contour>
  </outline>
</glyph>
<glyph name="dagger" format="2">
  <advance width="512"/>
  <unicode hex="2020"/>
  <outline>
    <contour>
      <point x="234" y="-200" type="line"/>
      <point x="278" y="-200" type="line"/>
      <point x="278" y="388" type="line"/>
      <point x="234" y="388" type="line"/>
    </contour>
    <contour>
      <point x="57" y="484" type="line"/>
      <point x="455" y="484" type="line"/>
      <point x="455" y="524" type="line"/>
      <point x="57" y="524" type="line"/>
    </contour>
    <contour>
      <point x="234" y="508" type="line"/>
      <point x="278" y="508" type="line"/>
      <point x="278" y="730" type="line"/>
      <point x="234" y="730" type="line"/>
    </contour>
  </outline>
</glyph>
<glyph name="daggerdbl" format="2">
  <advance width="512"/>
  <unicode hex="2021"/>
  <outline>
    <contour>
      <point x="57" y="484" type="line"/>
      <point x="455" y="484" type="line"/>
      <point x="455" y="524" type="line"/>
      <point x="57" y="524" type="line"/>
    </contour>
    <contour>
      <point x="234" y="-207" type="line"/>
      <point x="278" y="-207" type="line"/>
      <point x="278" y="15" type="line"/>
      <point x="234" y="15" type="line"/>
    </contour>
    <contour>
      <point x="57" y="-1" type="line"/>
      <point x="455" y="-1" type="line"/>
      <point x="455" y="39" type="line"/>
      <point x="57" y="39" type="line"/>
    </contour>
    <contour>
      <point x="236" y="126" type="line"/>
      <point x="276" y="126" type="line"/>
      <point x="276" y="397" type="line"/>
      <point x="236" y="397" type="line"/>
    </contour>
    <contour>
      <point x="234" y="508" type="line"/>
      <point x="278" y="508" type="line"/>
      <point x="278" y="730" type="line"/>
      <point x="234" y="730" type="line"/>
    </contour>
  </outline>
</glyph>
<glyph name="perthousand" format="2">
  <advance width="1191"/>
  <unicode hex="2030"/>
  <outline>
    <contour>
      <point x="244" y="0" type="line"/>
      <point x="285" y="0" type="line"/>
      <point x="575" y="730" type="line"/>
      <point x="535" y="730" type="line"/>
    </contour>
    <contour>
      <point x="199" y="347" type="curve" smooth="yes"/>
      <point x="302" y="347"/>
      <point x="351" y="429"/>
      <point x="351" y="534" type="curve" smooth="yes"/>
      <point x="351" y="550" type="line" smooth="yes"/>
      <point x="351" y="657"/>
      <point x="301" y="737"/>
      <point x="199" y="737" type="curve" smooth="yes"/>
      <point x="98" y="737"/>
      <point x="48" y="657"/>
      <point x="48" y="550" type="curve" smooth="yes"/>
      <point x="48" y="534" type="line" smooth="yes"/>
      <point x="48" y="429"/>
      <point x="97" y="347"/>
    </contour>
    <contour>
      <point x="199" y="383" type="curve" smooth="yes"/>
      <point x="124" y="383"/>
      <point x="87" y="442"/>
      <point x="87" y="542" type="curve" smooth="yes"/>
      <point x="87" y="643"/>
      <point x="124" y="701"/>
      <point x="199" y="701" type="curve" smooth="yes"/>
      <point x="274" y="701"/>
      <point x="312" y="643"/>
      <point x="312" y="542" type="curve" smooth="yes"/>
      <point x="312" y="440"/>
      <point x="275" y="383"/>
    </contour>
    <contour>
      <point x="619" y="-7" type="curve" smooth="yes"/>
      <point x="722" y="-7"/>
      <point x="771" y="75"/>
      <point x="771" y="180" type="curve" smooth="yes"/>
      <point x="771" y="196" type="line" smooth="yes"/>
      <point x="771" y="303"/>
      <point x="721" y="383"/>
      <point x="619" y="383" type="curve" smooth="yes"/>
      <point x="518" y="383"/>
      <point x="468" y="303"/>
      <point x="468" y="196" type="curve" smooth="yes"/>
      <point x="468" y="180" type="line" smooth="yes"/>
      <point x="468" y="75"/>
      <point x="517" y="-7"/>
    </contour>
    <contour>
      <point x="619" y="29" type="curve" smooth="yes"/>
      <point x="544" y="29"/>
      <point x="507" y="88"/>
      <point x="507" y="188" type="curve" smooth="yes"/>
      <point x="507" y="289"/>
      <point x="544" y="347"/>
      <point x="619" y="347" type="curve" smooth="yes"/>
      <point x="694" y="347"/>
      <point x="732" y="289"/>
      <point x="732" y="188" type="curve" smooth="yes"/>
      <point x="732" y="86"/>
      <point x="695" y="29"/>
    </contour>
    <contour>
      <point x="992" y="-7" type="curve" smooth="yes"/>
      <point x="1094" y="-7"/>
      <point x="1143" y="75"/>
      <point x="1143" y="180" type="curve" smooth="yes"/>
      <point x="1143" y="196" type="line" smooth="yes"/>
      <point x="1143" y="303"/>
      <point x="1093" y="383"/>
      <point x="992" y="383" type="curve" smooth="yes"/>
      <point x="890" y="383"/>
      <point x="840" y="303"/>
      <point x="840" y="196" type="curve" smooth="yes"/>
      <point x="840" y="180" type="line" smooth="yes"/>
      <point x="840" y="75"/>
      <point x="889" y="-7"/>
    </contour>
    <contour>
      <point x="992" y="29" type="curve" smooth="yes"/>
      <point x="916" y="29"/>
      <point x="879" y="88"/>
      <point x="879" y="188" type="curve" smooth="yes"/>
      <point x="879" y="289"/>
      <point x="917" y="347"/>
      <point x="992" y="347" type="curve" smooth="yes"/>
      <point x="1067" y="347"/>
      <point x="1104" y="289"/>
      <point x="1104" y="188" type="curve" smooth="yes"/>
      <point x="1104" y="86"/>
      <point x="1067" y="29"/>
    </contour>
  </outline>
</glyph>
<glyph name="euro" format="2">
  <advance width="690"/>
  <unicode hex="20AC"/>
  <outline>
    <contour>
      <point x="407" y="-12" type="curve" smooth="yes"/>
      <point x="561" y="-12"/>
      <point x="637" y="72"/>
      <point x="643" y="190" type="curve"/>
      <point x="599" y="190" type="line"/>
      <point x="594" y="97"/>
      <point x="534" y="31"/>
      <point x="407" y="31" type="curve" smooth="yes"/>
      <point x="255" y="31"/>
      <point x="165" y="131"/>
      <point x="165" y="365" type="curve" smooth="yes"/>
      <point x="165" y="600"/>
      <point x="248" y="699"/>
      <point x="398" y="699" type="curve" smooth="yes"/>
      <point x="520" y="699"/>
      <point x="587" y="633"/>
      <point x="593" y="540" type="curve"/>
      <point x="637" y="540" type="line"/>
      <point x="631" y="656"/>
      <point x="551" y="742"/>
      <point x="398" y="742" type="curve" smooth="yes"/>
      <point x="219" y="742"/>
      <point x="120" y="618"/>
      <point x="120" y="372" type="curve" smooth="yes"/>
      <point x="120" y="358" type="line" smooth="yes"/>
      <point x="120" y="114"/>
      <point x="223" y="-12"/>
    </contour>
    <contour>
      <point x="24" y="267" type="line"/>
      <point x="468" y="267" type="line"/>
      <point x="468" y="304" type="line"/>
      <point x="24" y="304" type="line"/>
    </contour>
    <contour>
      <point x="42" y="408" type="line"/>
      <point x="486" y="408" type="line"/>
      <point x="486" y="446" type="line"/>
      <point x="42" y="446" type="line"/>
    </contour>
  </outline>
</glyph>
<glyph name="trademark" format="2">
  <advance width="821"/>
  <unicode hex="2122"/>
  <outline>
    <contour>
      <point x="373" y="343" type="line"/>
      <point x="409" y="343" type="line"/>
      <point x="409" y="688" type="line"/>
      <point x="402" y="687" type="line"/>
      <point x="533" y="412" type="line"/>
      <point x="589" y="412" type="line"/>
      <point x="719" y="687" type="line"/>
      <point x="711" y="688" type="line"/>
      <point x="711" y="343" type="line"/>
      <point x="749" y="343" type="line"/>
      <point x="749" y="730" type="line"/>
      <point x="701" y="730" type="line"/>
      <point x="566" y="444" type="line"/>
      <point x="556" y="444" type="line"/>
      <point x="421" y="730" type="line"/>
      <point x="373" y="730" type="line"/>
    </contour>
    <contour>
      <point x="156" y="343" type="line"/>
      <point x="195" y="343" type="line"/>
      <point x="195" y="713" type="line"/>
      <point x="156" y="713" type="line"/>
    </contour>
    <contour>
      <point x="33" y="696" type="line"/>
      <point x="318" y="696" type="line"/>
      <point x="318" y="730" type="line"/>
      <point x="33" y="730" type="line"/>
    </contour>
  </outline>
</glyph>
<glyph name="greaterequal" format="2">
  <advance width="583"/>
  <unicode hex="2265"/>
  <outline>
    <contour>
      <point x="81" y="51" type="line"/>
      <point x="502" y="51" type="line"/>
      <point x="502" y="91" type="line"/>
      <point x="81" y="91" type="line"/>
    </contour>
    <contour>
      <point x="82" y="180" type="line"/>
      <point x="501" y="319" type="line"/>
      <point x="501" y="359" type="line"/>
      <point x="82" y="223" type="line"/>
    </contour>
    <contour>
      <point x="501" y="354" type="line"/>
      <point x="501" y="393" type="line"/>
      <point x="82" y="532" type="line"/>
      <point x="82" y="490" type="line"/>
    </contour>
    <contour>
      <point x="467" y="335" type="line"/>
      <point x="491" y="335" type="line"/>
      <point x="491" y="377" type="line"/>
      <point x="467" y="377" type="line"/>
    </contour>
  </outline>
</glyph>
<glyph name="sora" format="2">
  <advance width="814"/>
  <unicode hex="E000"/>
  <outline>
    <contour>
      <point x="85" y="-8" type="line"/>
      <point x="402" y="470" type="line"/>
      <point x="380" y="465" type="line"/>
      <point x="435" y="465" type="line"/>
      <point x="411" y="470" type="line"/>
      <point x="726" y="-8" type="line"/>
      <point x="767" y="17" type="line"/>
      <point x="442" y="505" type="line"/>
      <point x="372" y="505" type="line"/>
      <point x="47" y="18" type="line"/>
    </contour>
    <contour>
      <point x="66" y="505" type="line"/>
      <point x="748" y="505" type="line"/>
      <point x="748" y="543" type="line"/>
      <point x="66" y="543" type="line"/>
    </contour>
    <contour>
      <point x="384" y="531" type="line"/>
      <point x="429" y="531" type="line"/>
      <point x="429" y="703" type="line"/>
      <point x="384" y="703" type="line"/>
    </contour>
    <contour>
      <point x="66" y="692" type="line"/>
      <point x="748" y="692" type="line"/>
      <point x="748" y="730" type="line"/>
      <point x="66" y="730" type="line"/>
    </contour>
  </outline>
</glyph>
<glyph name="fi" format="2">
  <advance width="643"/>
  <unicode hex="FB01"/>
  <outline>
    <contour>
      <point x="120" y="0" type="line"/>
      <point x="167" y="0" type="line"/>
      <point x="167" y="600" type="line" smooth="yes"/>
      <point x="167" y="660"/>
      <point x="200" y="695"/>
      <point x="264" y="695" type="curve" smooth="yes"/>
      <point x="337" y="695" type="line"/>
      <point x="337" y="737" type="line"/>
      <point x="275" y="737" type="line" smooth="yes"/>
      <point x="170" y="737"/>
      <point x="120" y="689"/>
      <point x="120" y="587" type="curve" smooth="yes"/>
    </contour>
    <contour>
      <point x="38" y="483" type="line"/>
      <point x="343" y="483" type="line"/>
      <point x="343" y="522" type="line"/>
      <point x="38" y="522" type="line"/>
    </contour>
    <contour>
      <point x="489" y="0" type="line"/>
      <point x="537" y="0" type="line"/>
      <point x="537" y="524" type="line"/>
      <point x="489" y="524" type="line"/>
    </contour>
    <contour>
      <point x="402" y="482" type="line"/>
      <point x="537" y="482" type="line"/>
      <point x="537" y="524" type="line"/>
      <point x="402" y="524" type="line"/>
    </contour>
    <contour>
      <point x="491" y="637" type="curve" smooth="yes"/>
      <point x="518" y="637"/>
      <point x="532" y="653"/>
      <point x="532" y="676" type="curve" smooth="yes"/>
      <point x="532" y="699"/>
      <point x="518" y="716"/>
      <point x="491" y="716" type="curve" smooth="yes"/>
      <point x="464" y="716"/>
      <point x="450" y="699"/>
      <point x="450" y="676" type="curve" smooth="yes"/>
      <point x="450" y="653"/>
      <point x="464" y="637"/>
    </contour>
  </outline>
</glyph>
<glyph name="J.salt" format="2">
  <advance width="578"/>
  <anchor x="267" y="0" name="bottom"/>
  <anchor x="438" y="730" name="top"/>
  <outline>
    <contour>
      <point x="266" y="-19" type="curve" smooth="yes"/>
      <point x="384" y="-19"/>
      <point x="462" y="51"/>
      <point x="462" y="182" type="curve" smooth="yes"/>
      <point x="462" y="730" type="line"/>
      <point x="413" y="730" type="line"/>
      <point x="413" y="174" type="line" smooth="yes"/>
      <point x="413" y="71"/>
      <point x="351" y="26"/>
      <point x="266" y="26" type="curve" smooth="yes"/>
      <point x="180" y="26"/>
      <point x="118" y="71"/>
      <point x="118" y="174" type="curve" smooth="yes"/>
      <point x="118" y="308" type="line"/>
      <point x="69" y="308" type="line"/>
      <point x="69" y="182" type="line" smooth="yes"/>
      <point x="69" y="51"/>
      <point x="147" y="-19"/>
    </contour>
  </outline>
</glyph>
<glyph name="Q.salt" format="2">
  <advance width="871"/>
  <anchor x="436" y="0" name="bottom"/>
  <anchor x="436" y="365" name="center"/>
  <anchor x="566" y="10" name="ogonek"/>
  <anchor x="436" y="730" name="top"/>
  <outline>
    <contour>
      <point x="705" y="-65" type="line"/>
      <point x="756" y="-65" type="line"/>
      <point x="495" y="290" type="line"/>
      <point x="444" y="290" type="line"/>
    </contour>
    <component base="O"/>
  </outline>
</glyph>
<glyph name="asterisk.part" format="2">
  <advance width="188"/>
  <outline>
    <contour>
      <point x="159" y="328" type="line"/>
      <point x="183" y="370" type="line"/>
      <point x="39" y="447" type="line"/>
      <point x="39" y="493" type="line"/>
      <point x="183" y="571" type="line"/>
      <point x="159" y="613" type="line"/>
      <point x="0" y="511" type="line"/>
      <point x="0" y="429" type="line"/>
    </contour>
  </outline>
</glyph>
<glyph name="caroncomb.case" format="2">
  <anchor x="146" y="730" name="_top"/>
  <anchor x="146" y="943" name="top"/>
  <outline>
    <contour>
      <point x="112" y="799" type="line"/>
      <point x="179" y="799" type="line"/>
      <point x="288" y="943" type="line"/>
      <point x="242" y="943" type="line"/>
      <point x="156" y="827" type="line"/>
      <point x="137" y="827" type="line"/>
      <point x="48" y="943" type="line"/>
      <point x="0" y="943" type="line"/>
    </contour>
  </outline>
</glyph>
<glyph name="cedillacomb.case" format="2">
  <anchor x="68" y="0" name="_bottom"/>
  <anchor x="73" y="-300" name="bottom"/>
  <outline>
    <contour>
      <point x="73" y="-236" type="curve" smooth="yes"/>
      <point x="144" y="-236"/>
      <point x="187" y="-201"/>
      <point x="187" y="-147" type="curve" smooth="yes"/>
      <point x="187" y="-97"/>
      <point x="144" y="-64"/>
      <point x="79" y="-64" type="curve" smooth="yes"/>
      <point x="66" y="-64" type="line"/>
      <point x="86" y="-88" type="line"/>
      <point x="86" y="10" type="line"/>
      <point x="50" y="10" type="line"/>
      <point x="50" y="-99" type="line"/>
      <point x="80" y="-99" type="line" smooth="yes"/>
      <point x="123" y="-99"/>
      <point x="147" y="-118"/>
      <point x="147" y="-147" type="curve" smooth="yes"/>
      <point x="147" y="-182"/>
      <point x="120" y="-198"/>
      <point x="73" y="-198" type="curve" smooth="yes"/>
      <point x="48" y="-198"/>
      <point x="20" y="-194"/>
      <point x="0" y="-188" type="curve"/>
      <point x="0" y="-226" type="line"/>
      <point x="18" y="-232"/>
      <point x="45" y="-236"/>
    </contour>
  </outline>
</glyph>
<glyph name="circumflexcomb.case" format="2">
  <anchor x="149" y="730" name="_top"/>
  <anchor x="149" y="943" name="top"/>
  <outline>
    <contour>
      <point x="0" y="799" type="line"/>
      <point x="47" y="799" type="line"/>
      <point x="139" y="915" type="line"/>
      <point x="158" y="915" type="line"/>
      <point x="251" y="799" type="line"/>
      <point x="298" y="799" type="line"/>
      <point x="183" y="943" type="line"/>
      <point x="115" y="943" type="line"/>
    </contour>
  </outline>
</glyph>
<glyph name="commaaccentcomb.case" format="2">
  <anchor x="54" y="0" name="_bottom"/>
  <anchor x="54" y="-300" name="bottom"/>
  <outline>
    <contour>
      <point x="0" y="-263" type="line"/>
      <point x="8" y="-263" type="line" smooth="yes"/>
      <point x="70" y="-263"/>
      <point x="109" y="-223"/>
      <point x="109" y="-139" type="curve" smooth="yes"/>
      <point x="109" y="-135" type="line" smooth="yes"/>
      <point x="109" y="-80"/>
      <point x="86" y="-56"/>
      <point x="52" y="-56" type="curve" smooth="yes"/>
      <point x="26" y="-56"/>
      <point x="8" y="-73"/>
      <point x="8" y="-98" type="curve" smooth="yes"/>
      <point x="8" y="-124"/>
      <point x="25" y="-139"/>
      <point x="48" y="-139" type="curve" smooth="yes"/>
      <point x="69" y="-139"/>
      <point x="80" y="-126"/>
      <point x="85" y="-112" type="curve"/>
      <point x="76" y="-110" type="line"/>
      <point x="76" y="-141" type="line" smooth="yes"/>
      <point x="76" y="-203"/>
      <point x="52" y="-233"/>
      <point x="8" y="-233" type="curve" smooth="yes"/>
      <point x="0" y="-233" type="line"/>
    </contour>
  </outline>
</glyph>
<glyph name="eight.tnum" format="2">
  <advance width="632"/>
  <outline>
    <contour>
      <point x="316" y="-16" type="curve" smooth="yes"/>
      <point x="473" y="-16"/>
      <point x="567" y="80"/>
      <point x="567" y="197" type="curve" smooth="yes"/>
      <point x="567" y="300"/>
      <point x="493" y="370"/>
      <point x="416" y="387" type="curve"/>
      <point x="416" y="397" type="line"/>
      <point x="479" y="417"/>
      <point x="541" y="468"/>
      <point x="541" y="561" type="curve" smooth="yes"/>
      <point x="541" y="673"/>
      <point x="450" y="748"/>
      <point x="316" y="748" type="curve" smooth="yes"/>
      <point x="183" y="748"/>
      <point x="91" y="673"/>
      <point x="91" y="561" type="curve" smooth="yes"/>
      <point x="91" y="468"/>
      <point x="154" y="417"/>
      <point x="216" y="397" type="curve"/>
      <point x="216" y="387" type="line"/>
      <point x="140" y="370"/>
      <point x="65" y="300"/>
      <point x="65" y="197" type="curve" smooth="yes"/>
      <point x="65" y="80"/>
      <point x="159" y="-16"/>
    </contour>
    <contour>
      <point x="316" y="27" type="curve" smooth="yes"/>
      <point x="186" y="27"/>
      <point x="112" y="102"/>
      <point x="112" y="198" type="curve" smooth="yes"/>
      <point x="112" y="297"/>
      <point x="186" y="371"/>
      <point x="316" y="371" type="curve" smooth="yes"/>
      <point x="446" y="371"/>
      <point x="520" y="297"/>
      <point x="520" y="198" type="curve" smooth="yes"/>
      <point x="520" y="102"/>
      <point x="446" y="27"/>
    </contour>
    <contour>
      <point x="316" y="411" type="curve" smooth="yes"/>
      <point x="211" y="411"/>
      <point x="139" y="465"/>
      <point x="139" y="559" type="curve" smooth="yes"/>
      <point x="139" y="651"/>
      <point x="208" y="705"/>
      <point x="316" y="705" type="curve" smooth="yes"/>
      <point x="424" y="705"/>
      <point x="494" y="651"/>
      <point x="494" y="559" type="curve" smooth="yes"/>
      <point x="494" y="465"/>
      <point x="421" y="411"/>
    </contour>
  </outline>
</glyph>
<glyph name="emdash.case" format="2">
  <advance width="887"/>
  <outline>
    <contour>
      <point x="18" y="351" type="line"/>
      <point x="869" y="351" type="line"/>
      <point x="869" y="392" type="line"/>
      <point x="18" y="392" type="line"/>
    </contour>
  </outline>
</glyph>
<glyph name="equal.tnum" format="2">
  <advance width="632"/>
  <outline>
    <contour>
      <point x="102" y="395" type="line"/>
      <point x="530" y="395" type="line"/>
      <point x="530" y="435" type="line"/>
      <point x="102" y="435" type="line"/>
    </contour>
    <contour>
      <point x="102" y="232" type="line"/>
      <point x="530" y="232" type="line"/>
      <point x="530" y="272" type="line"/>
      <point x="102" y="272" type="line"/>
    </contour>
  </outline>
</glyph>
<glyph name="euro.tnum" format="2">
  <advance width="632"/>
  <outline>
    <contour>
      <point x="384" y="-12" type="curve" smooth="yes"/>
      <point x="533" y="-12"/>
      <point x="603" y="73"/>
      <point x="609" y="190" type="curve"/>
      <point x="565" y="190" type="line"/>
      <point x="560" y="98"/>
      <point x="504" y="31"/>
      <point x="384" y="31" type="curve" smooth="yes"/>
      <point x="237" y="31"/>
      <point x="152" y="133"/>
      <point x="152" y="365" type="curve" smooth="yes"/>
      <point x="152" y="598"/>
      <point x="230" y="699"/>
      <point x="374" y="699" type="curve" smooth="yes"/>
      <point x="491" y="699"/>
      <point x="553" y="633"/>
      <point x="559" y="540" type="curve"/>
      <point x="603" y="540" type="line"/>
      <point x="597" y="655"/>
      <point x="521" y="742"/>
      <point x="374" y="742" type="curve" smooth="yes"/>
      <point x="201" y="742"/>
      <point x="106" y="616"/>
      <point x="106" y="372" type="curve" smooth="yes"/>
      <point x="106" y="358" type="line" smooth="yes"/>
      <point x="106" y="116"/>
      <point x="205" y="-12"/>
    </contour>
    <contour>
      <point x="15" y="267" type="line"/>
      <point x="452" y="267" type="line"/>
      <point x="452" y="304" type="line"/>
      <point x="15" y="304" type="line"/>
    </contour>
    <contour>
      <point x="33" y="408" type="line"/>
      <point x="470" y="408" type="line"/>
      <point x="470" y="446" type="line"/>
      <point x="33" y="446" type="line"/>
    </contour>
  </outline>
</glyph>
<glyph name="f_f" format="2">
  <advance width="704"/>
  <outline>
    <contour>
      <point x="120" y="0" type="line"/>
      <point x="167" y="0" type="line"/>
      <point x="167" y="600" type="line" smooth="yes"/>
      <point x="167" y="660"/>
      <point x="200" y="695"/>
      <point x="264" y="695" type="curve" smooth="yes"/>
      <point x="337" y="695" type="line"/>
      <point x="337" y="737" type="line"/>
      <point x="275" y="737" type="line" smooth="yes"/>
      <point x="170" y="737"/>
      <point x="120" y="689"/>
      <point x="120" y="587" type="curve" smooth="yes"/>
    </contour>
    <contour>
      <point x="453" y="0" type="line"/>
      <point x="500" y="0" type="line"/>
      <point x="500" y="594" type="line" smooth="yes"/>
      <point x="500" y="654"/>
      <point x="534" y="689"/>
      <point x="597" y="689" type="curve" smooth="yes"/>
      <point x="678" y="689" type="line"/>
      <point x="678" y="731" type="line"/>
      <point x="609" y="731" type="line" smooth="yes"/>
      <point x="503" y="731"/>
      <point x="453" y="683"/>
      <point x="453" y="581" type="curve" smooth="yes"/>
    </contour>
    <contour>
      <point x="38" y="482" type="line"/>
      <point x="689" y="482" type="line"/>
      <point x="689" y="521" type="line"/>
      <point x="38" y="521" type="line"/>
    </contour>
  </outline>
</glyph>
<glyph name="f_f.salt" format="2">
  <advance width="697"/>
  <outline>
    <contour>
      <point x="124" y="0" type="line"/>
      <point x="171" y="0" type="line"/>
      <point x="171" y="630" type="line" smooth="yes"/>
      <point x="171" y="673"/>
      <point x="193" y="701"/>
      <point x="238" y="701" type="curve" smooth="yes"/>
      <point x="278" y="701"/>
      <point x="305" y="673"/>
      <point x="305" y="630" type="curve"/>
      <point x="347" y="630" type="line"/>
      <point x="347" y="691"/>
      <point x="307" y="742"/>
      <point x="237" y="742" type="curve" smooth="yes"/>
      <point x="163" y="742"/>
      <point x="124" y="691"/>
      <point x="124" y="627" type="curve" smooth="yes"/>
    </contour>
    <contour>
      <point x="461" y="0" type="line"/>
      <point x="508" y="0" type="line"/>
      <point x="508" y="634" type="line" smooth="yes"/>
      <point x="508" y="678"/>
      <point x="532" y="707"/>
      <point x="578" y="707" type="curve" smooth="yes"/>
      <point x="619" y="707"/>
      <point x="648" y="678"/>
      <point x="648" y="634" type="curve"/>
      <point x="690" y="634" type="line"/>
      <point x="690" y="696"/>
      <point x="649" y="748"/>
      <point x="577" y="748" type="curve" smooth="yes"/>
      <point x="501" y="748"/>
      <point x="461" y="696"/>
      <point x="461" y="631" type="curve" smooth="yes"/>
    </contour>
    <contour>
      <point x="41" y="481" type="line"/>
      <point x="680" y="481" type="line"/>
      <point x="680" y="520" type="line"/>
      <point x="41" y="520" type="line"/>
    </contour>
  </outline>
</glyph>
<glyph name="f_f_i.salt" format="2">
  <advance width="966"/>
  <outline>
    <contour>
      <point x="124" y="0" type="line"/>
      <point x="171" y="0" type="line"/>
      <point x="171" y="630" type="line" smooth="yes"/>
      <point x="171" y="673"/>
      <point x="193" y="701"/>
      <point x="238" y="701" type="curve" smooth="yes"/>
      <point x="278" y="701"/>
      <point x="305" y="673"/>
      <point x="305" y="630" type="curve"/>
      <point x="347" y="630" type="line"/>
      <point x="347" y="691"/>
      <point x="307" y="742"/>
      <point x="237" y="742" type="curve" smooth="yes"/>
      <point x="163" y="742"/>
      <point x="124" y="691"/>
      <point x="124" y="627" type="curve" smooth="yes"/>
    </contour>
    <contour>
      <point x="461" y="0" type="line"/>
      <point x="508" y="0" type="line"/>
      <point x="508" y="635" type="line" smooth="yes"/>
      <point x="508" y="679"/>
      <point x="532" y="707"/>
      <point x="578" y="707" type="curve" smooth="yes"/>
      <point x="619" y="707"/>
      <point x="648" y="679"/>
      <point x="648" y="635" type="curve"/>
      <point x="690" y="635" type="line"/>
      <point x="690" y="697"/>
      <point x="649" y="748"/>
      <point x="577" y="748" type="curve" smooth="yes"/>
      <point x="501" y="748"/>
      <point x="461" y="697"/>
      <point x="461" y="632" type="curve" smooth="yes"/>
    </contour>
    <contour>
      <point x="812" y="0" type="line"/>
      <point x="860" y="0" type="line"/>
      <point x="860" y="524" type="line"/>
      <point x="812" y="524" type="line"/>
    </contour>
    <contour>
      <point x="41" y="485" type="line"/>
      <point x="667" y="485" type="line"/>
      <point x="667" y="524" type="line"/>
      <point x="41" y="524" type="line"/>
    </contour>
    <contour>
      <point x="729" y="482" type="line"/>
      <point x="860" y="482" type="line"/>
      <point x="860" y="524" type="line"/>
      <point x="729" y="524" type="line"/>
    </contour>
    <contour>
      <point x="815" y="637" type="curve" smooth="yes"/>
      <point x="842" y="637"/>
      <point x="856" y="653"/>
      <point x="856" y="676" type="curve" smooth="yes"/>
      <point x="856" y="699"/>
      <point x="842" y="716"/>
      <point x="815" y="716" type="curve" smooth="yes"/>
      <point x="788" y="716"/>
      <point x="774" y="699"/>
      <point x="774" y="676" type="curve" smooth="yes"/>
      <point x="774" y="653"/>
      <point x="788" y="637"/>
    </contour>
  </outline>
</glyph>
<glyph name="f_f_j" format="2">
  <advance width="984"/>
  <outline>
    <contour>
      <point x="120" y="0" type="line"/>
      <point x="167" y="0" type="line"/>
      <point x="167" y="602" type="line" smooth="yes"/>
      <point x="167" y="662"/>
      <point x="200" y="696"/>
      <point x="264" y="696" type="curve" smooth="yes"/>
      <point x="337" y="696" type="line"/>
      <point x="337" y="739" type="line"/>
      <point x="275" y="739" type="line" smooth="yes"/>
      <point x="170" y="739"/>
      <point x="120" y="691"/>
      <point x="120" y="589" type="curve" smooth="yes"/>
    </contour>
    <contour>
      <point x="453" y="0" type="line"/>
      <point x="500" y="0" type="line"/>
      <point x="500" y="596" type="line" smooth="yes"/>
      <point x="500" y="656"/>
      <point x="534" y="690"/>
      <point x="597" y="690" type="curve" smooth="yes"/>
      <point x="674" y="690" type="line"/>
      <point x="674" y="733" type="line"/>
      <point x="609" y="733" type="line" smooth="yes"/>
      <point x="503" y="733"/>
      <point x="453" y="685"/>
      <point x="453" y="583" type="curve" smooth="yes"/>
    </contour>
    <contour>
      <point x="683" y="-201" type="line"/>
      <point x="737" y="-201" type="line" smooth="yes"/>
      <point x="839" y="-201"/>
      <point x="878" y="-159"/>
      <point x="878" y="-47" type="curve" smooth="yes"/>
      <point x="878" y="524" type="line"/>
      <point x="831" y="524" type="line"/>
      <point x="831" y="-61" type="line" smooth="yes"/>
      <point x="831" y="-125"/>
      <point x="803" y="-157"/>
      <point x="749" y="-157" type="curve" smooth="yes"/>
      <point x="683" y="-157" type="line"/>
    </contour>
    <contour>
      <point x="38" y="485" type="line"/>
      <point x="684" y="485" type="line"/>
      <point x="684" y="524" type="line"/>
      <point x="38" y="524" type="line"/>
    </contour>
    <contour>
      <point x="743" y="482" type="line"/>
      <point x="878" y="482" type="line"/>
      <point x="878" y="524" type="line"/>
      <point x="743" y="524" type="line"/>
    </contour>
    <contour>
      <point x="833" y="646" type="curve" smooth="yes"/>
      <point x="860" y="646"/>
      <point x="874" y="662"/>
      <point x="874" y="686" type="curve" smooth="yes"/>
      <point x="874" y="709"/>
      <point x="860" y="726"/>
      <point x="833" y="726" type="curve" smooth="yes"/>
      <point x="805" y="726"/>
      <point x="791" y="709"/>
      <point x="791" y="686" type="curve" smooth="yes"/>
      <point x="791" y="662"/>
      <point x="805" y="646"/>
    </contour>
  </outline>
</glyph>
<glyph name="f_f_j.salt" format="2">
  <advance width="977"/>
  <outline>
    <contour>
      <point x="124" y="0" type="line"/>
      <point x="171" y="0" type="line"/>
      <point x="171" y="631" type="line" smooth="yes"/>
      <point x="171" y="674"/>
      <point x="194" y="701"/>
      <point x="238" y="701" type="curve" smooth="yes"/>
      <point x="278" y="701"/>
      <point x="305" y="674"/>
      <point x="305" y="631" type="curve"/>
      <point x="347" y="631" type="line"/>
      <point x="347" y="692"/>
      <point x="307" y="742"/>
      <point x="237" y="742" type="curve" smooth="yes"/>
      <point x="163" y="742"/>
      <point x="124" y="692"/>
      <point x="124" y="628" type="curve" smooth="yes"/>
    </contour>
    <contour>
      <point x="461" y="0" type="line"/>
      <point x="508" y="0" type="line"/>
      <point x="508" y="635" type="line" smooth="yes"/>
      <point x="508" y="678"/>
      <point x="532" y="707"/>
      <point x="578" y="707" type="curve" smooth="yes"/>
      <point x="619" y="707"/>
      <point x="648" y="678"/>
      <point x="648" y="635" type="curve"/>
      <point x="689" y="635" type="line"/>
      <point x="689" y="697"/>
      <point x="648" y="748"/>
      <point x="577" y="748" type="curve" smooth="yes"/>
      <point x="501" y="748"/>
      <point x="461" y="697"/>
      <point x="461" y="632" type="curve" smooth="yes"/>
    </contour>
    <contour>
      <point x="676" y="-201" type="line"/>
      <point x="730" y="-201" type="line" smooth="yes"/>
      <point x="832" y="-201"/>
      <point x="871" y="-159"/>
      <point x="871" y="-47" type="curve" smooth="yes"/>
      <point x="871" y="524" type="line"/>
      <point x="824" y="524" type="line"/>
      <point x="824" y="-61" type="line" smooth="yes"/>
      <point x="824" y="-125"/>
      <point x="796" y="-157"/>
      <point x="742" y="-157" type="curve" smooth="yes"/>
      <point x="676" y="-157" type="line"/>
    </contour>
    <contour>
      <point x="41" y="485" type="line"/>
      <point x="677" y="485" type="line"/>
      <point x="677" y="524" type="line"/>
      <point x="41" y="524" type="line"/>
    </contour>
    <contour>
      <point x="740" y="482" type="line"/>
      <point x="871" y="482" type="line"/>
      <point x="871" y="524" type="line"/>
      <point x="740" y="524" type="line"/>
    </contour>
    <contour>
      <point x="826" y="646" type="curve" smooth="yes"/>
      <point x="853" y="646"/>
      <point x="867" y="662"/>
      <point x="867" y="686" type="curve" smooth="yes"/>
      <point x="867" y="709"/>
      <point x="853" y="726"/>
      <point x="826" y="726" type="curve" smooth="yes"/>
      <point x="798" y="726"/>
      <point x="784" y="709"/>
      <point x="784" y="686" type="curve" smooth="yes"/>
      <point x="784" y="662"/>
      <point x="798" y="646"/>
    </contour>
  </outline>
</glyph>
<glyph name="f_f_l" format="2">
  <advance width="961"/>
  <outline>
    <contour>
      <point x="120" y="0" type="line"/>
      <point x="167" y="0" type="line"/>
      <point x="167" y="600" type="line" smooth="yes"/>
      <point x="167" y="660"/>
      <point x="200" y="695"/>
      <point x="264" y="695" type="curve" smooth="yes"/>
      <point x="337" y="695" type="line"/>
      <point x="337" y="737" type="line"/>
      <point x="275" y="737" type="line" smooth="yes"/>
      <point x="170" y="737"/>
      <point x="120" y="689"/>
      <point x="120" y="587" type="curve" smooth="yes"/>
    </contour>
    <contour>
      <point x="453" y="0" type="line"/>
      <point x="500" y="0" type="line"/>
      <point x="500" y="593" type="line" smooth="yes"/>
      <point x="500" y="653"/>
      <point x="534" y="688"/>
      <point x="597" y="688" type="curve" smooth="yes"/>
      <point x="669" y="688" type="line"/>
      <point x="669" y="730" type="line"/>
      <point x="609" y="730" type="line" smooth="yes"/>
      <point x="503" y="730"/>
      <point x="453" y="682"/>
      <point x="453" y="580" type="curve" smooth="yes"/>
    </contour>
    <contour>
      <point x="809" y="0" type="line"/>
      <point x="857" y="0" type="line"/>
      <point x="857" y="730" type="line"/>
      <point x="809" y="730" type="line"/>
    </contour>
    <contour>
      <point x="38" y="482" type="line"/>
      <point x="674" y="482" type="line"/>
      <point x="674" y="521" type="line"/>
      <point x="38" y="521" type="line"/>
    </contour>
    <contour>
      <point x="734" y="689" type="line"/>
      <point x="857" y="689" type="line"/>
      <point x="857" y="730" type="line"/>
      <point x="734" y="730" type="line"/>
    </contour>
  </outline>
</glyph>
<glyph name="f_f_l.salt" format="2">
  <advance width="971"/>
  <outline>
    <contour>
      <point x="124" y="0" type="line"/>
      <point x="171" y="0" type="line"/>
      <point x="171" y="630" type="line" smooth="yes"/>
      <point x="171" y="673"/>
      <point x="193" y="701"/>
      <point x="238" y="701" type="curve" smooth="yes"/>
      <point x="278" y="701"/>
      <point x="305" y="673"/>
      <point x="305" y="630" type="curve"/>
      <point x="347" y="630" type="line"/>
      <point x="347" y="691"/>
      <point x="307" y="742"/>
      <point x="237" y="742" type="curve" smooth="yes"/>
      <point x="163" y="742"/>
      <point x="124" y="691"/>
      <point x="124" y="627" type="curve" smooth="yes"/>
    </contour>
    <contour>
      <point x="461" y="0" type="line"/>
      <point x="508" y="0" type="line"/>
      <point x="508" y="634" type="line" smooth="yes"/>
      <point x="508" y="678"/>
      <point x="531" y="707"/>
      <point x="576" y="707" type="curve" smooth="yes"/>
      <point x="616" y="707"/>
      <point x="644" y="678"/>
      <point x="644" y="634" type="curve"/>
      <point x="685" y="634" type="line"/>
      <point x="685" y="696"/>
      <point x="646" y="748"/>
      <point x="575" y="748" type="curve" smooth="yes"/>
      <point x="500" y="748"/>
      <point x="461" y="696"/>
      <point x="461" y="631" type="curve" smooth="yes"/>
    </contour>
    <contour>
      <point x="872" y="-6" type="curve" smooth="yes"/>
      <point x="926" y="-6" type="line"/>
      <point x="926" y="37" type="line"/>
      <point x="867" y="37" type="line" smooth="yes"/>
      <point x="837" y="37"/>
      <point x="823" y="52"/>
      <point x="823" y="89" type="curve" smooth="yes"/>
      <point x="823" y="730" type="line"/>
      <point x="775" y="730" type="line"/>
      <point x="775" y="93" type="line" smooth="yes"/>
      <point x="775" y="21"/>
      <point x="814" y="-6"/>
    </contour>
    <contour>
      <point x="41" y="481" type="line"/>
      <point x="674" y="481" type="line"/>
      <point x="674" y="520" type="line"/>
      <point x="41" y="520" type="line"/>
    </contour>
  </outline>
</glyph>
<glyph name="f_j" format="2">
  <advance width="651"/>
  <outline>
    <contour>
      <point x="120" y="0" type="line"/>
      <point x="167" y="0" type="line"/>
      <point x="167" y="600" type="line" smooth="yes"/>
      <point x="167" y="660"/>
      <point x="200" y="695"/>
      <point x="264" y="695" type="curve" smooth="yes"/>
      <point x="331" y="695" type="line"/>
      <point x="331" y="737" type="line"/>
      <point x="275" y="737" type="line" smooth="yes"/>
      <point x="170" y="737"/>
      <point x="120" y="689"/>
      <point x="120" y="587" type="curve" smooth="yes"/>
    </contour>
    <contour>
      <point x="350" y="-201" type="line"/>
      <point x="404" y="-201" type="line" smooth="yes"/>
      <point x="505" y="-201"/>
      <point x="545" y="-159"/>
      <point x="545" y="-47" type="curve" smooth="yes"/>
      <point x="545" y="524" type="line"/>
      <point x="498" y="524" type="line"/>
      <point x="498" y="-61" type="line" smooth="yes"/>
      <point x="498" y="-125"/>
      <point x="470" y="-157"/>
      <point x="416" y="-157" type="curve" smooth="yes"/>
      <point x="350" y="-157" type="line"/>
    </contour>
    <contour>
      <point x="38" y="485" type="line"/>
      <point x="341" y="485" type="line"/>
      <point x="341" y="524" type="line"/>
      <point x="38" y="524" type="line"/>
    </contour>
    <contour>
      <point x="410" y="482" type="line"/>
      <point x="545" y="482" type="line"/>
      <point x="545" y="524" type="line"/>
      <point x="410" y="524" type="line"/>
    </contour>
    <contour>
      <point x="499" y="646" type="curve" smooth="yes"/>
      <point x="527" y="646"/>
      <point x="541" y="662"/>
      <point x="541" y="686" type="curve" smooth="yes"/>
      <point x="541" y="709"/>
      <point x="527" y="726"/>
      <point x="499" y="726" type="curve" smooth="yes"/>
      <point x="472" y="726"/>
      <point x="458" y="709"/>
      <point x="458" y="686" type="curve" smooth="yes"/>
      <point x="458" y="662"/>
      <point x="472" y="646"/>
    </contour>
  </outline>
</glyph>
<glyph name="f_j.salt" format="2">
  <advance width="640"/>
  <outline>
    <contour>
      <point x="124" y="0" type="line"/>
      <point x="171" y="0" type="line"/>
      <point x="171" y="630" type="line" smooth="yes"/>
      <point x="171" y="674"/>
      <point x="195" y="702"/>
      <point x="241" y="702" type="curve" smooth="yes"/>
      <point x="282" y="702"/>
      <point x="311" y="674"/>
      <point x="311" y="630" type="curve"/>
      <point x="353" y="630" type="line"/>
      <point x="353" y="692"/>
      <point x="312" y="743"/>
      <point x="240" y="743" type="curve" smooth="yes"/>
      <point x="165" y="743"/>
      <point x="124" y="692"/>
      <point x="124" y="627" type="curve" smooth="yes"/>
    </contour>
    <contour>
      <point x="339" y="-201" type="line"/>
      <point x="393" y="-201" type="line" smooth="yes"/>
      <point x="495" y="-201"/>
      <point x="535" y="-159"/>
      <point x="535" y="-47" type="curve" smooth="yes"/>
      <point x="535" y="524" type="line"/>
      <point x="488" y="524" type="line"/>
      <point x="488" y="-61" type="line" smooth="yes"/>
      <point x="488" y="-125"/>
      <point x="459" y="-157"/>
      <point x="406" y="-157" type="curve" smooth="yes"/>
      <point x="339" y="-157" type="line"/>
    </contour>
    <contour>
      <point x="41" y="485" type="line"/>
      <point x="336" y="485" type="line"/>
      <point x="336" y="524" type="line"/>
      <point x="41" y="524" type="line"/>
    </contour>
    <contour>
      <point x="404" y="482" type="line"/>
      <point x="535" y="482" type="line"/>
      <point x="535" y="524" type="line"/>
      <point x="404" y="524" type="line"/>
    </contour>
    <contour>
      <point x="489" y="646" type="curve" smooth="yes"/>
      <point x="516" y="646"/>
      <point x="530" y="662"/>
      <point x="530" y="686" type="curve" smooth="yes"/>
      <point x="530" y="709"/>
      <point x="516" y="726"/>
      <point x="489" y="726" type="curve" smooth="yes"/>
      <point x="462" y="726"/>
      <point x="448" y="709"/>
      <point x="448" y="686" type="curve" smooth="yes"/>
      <point x="448" y="662"/>
      <point x="462" y="646"/>
    </contour>
  </outline>
</glyph>
<glyph name="guilsinglleft.case" format="2">
  <advance width="289"/>
  <outline>
    <contour>
      <point x="186" y="141" type="line"/>
      <point x="234" y="141" type="line"/>
      <point x="101" y="357" type="line"/>
      <point x="101" y="374" type="line"/>
      <point x="233" y="591" type="line"/>
      <point x="186" y="591" type="line"/>
      <point x="58" y="381" type="line"/>
      <point x="58" y="347" type="line"/>
    </contour>
  </outline>
</glyph>
<glyph name="hungarumlautcomb.case" format="2">
  <anchor x="107" y="730" name="_top"/>
  <anchor x="184" y="943" name="top"/>
  <outline>
    <contour>
      <point x="149" y="799" type="line"/>
      <point x="190" y="799" type="line"/>
      <point x="282" y="943" type="line"/>
      <point x="233" y="943" type="line"/>
    </contour>
    <contour>
      <point x="0" y="799" type="line"/>
      <point x="41" y="799" type="line"/>
      <point x="134" y="943" type="line"/>
      <point x="85" y="943" type="line"/>
    </contour>
  </outline>
</glyph>
<glyph name="lslash.salt" format="2">
  <advance width="288"/>
  <anchor x="165" y="0" name="bottom"/>
  <anchor x="134" y="480" name="center"/>
  <anchor x="115" y="730" name="top"/>
  <anchor x="141" y="533" name="topright"/>
  <outline>
    <contour>
      <point x="22" y="255" type="line"/>
      <point x="103" y="303" type="line"/>
      <point x="103" y="344" type="line"/>
      <point x="22" y="296" type="line"/>
    </contour>
    <contour>
      <point x="132" y="319" type="line"/>
      <point x="213" y="367" type="line"/>
      <point x="213" y="408" type="line"/>
      <point x="132" y="360" type="line"/>
    </contour>
    <component base="l.salt"/>
  </outline>
</glyph>
<glyph name="one.tnum" format="2">
  <advance width="632"/>
  <outline>
    <contour>
      <point x="312" y="0" type="line"/>
      <point x="360" y="0" type="line"/>
      <point x="360" y="730" type="line"/>
      <point x="153" y="730" type="line"/>
      <point x="153" y="687" type="line"/>
      <point x="331" y="687" type="line"/>
      <point x="312" y="703" type="line"/>
    </contour>
    <contour>
      <point x="152" y="0" type="line"/>
      <point x="519" y="0" type="line"/>
      <point x="519" y="43" type="line"/>
      <point x="152" y="43" type="line"/>
    </contour>
  </outline>
</glyph>
<glyph name="parenleft.case" format="2">
  <advance width="361"/>
  <outline>
    <contour>
      <point x="280" y="-118" type="curve"/>
      <point x="335" y="-118" type="line"/>
      <point x="214" y="20"/>
      <point x="143" y="150"/>
      <point x="143" y="347" type="curve" smooth="yes"/>
      <point x="143" y="542"/>
      <point x="215" y="670"/>
      <point x="335" y="806" type="curve"/>
      <point x="280" y="806" type="line"/>
      <point x="173" y="688"/>
      <point x="95" y="551"/>
      <point x="95" y="347" type="curve" smooth="yes"/>
      <point x="95" y="141"/>
      <point x="173" y="2"/>
    </contour>
  </outline>
</glyph>
<glyph name="plus.tnum" format="2">
  <advance width="632"/>
  <outline>
    <contour>
      <point x="294" y="106" type="line"/>
      <point x="338" y="106" type="line"/>
      <point x="338" y="582" type="line"/>
      <point x="294" y="582" type="line"/>
    </contour>
    <contour>
      <point x="97" y="324" type="line"/>
      <point x="536" y="324" type="line"/>
      <point x="536" y="364" type="line"/>
      <point x="97" y="364" type="line"/>
    </contour>
  </outline>
</glyph>
<glyph name="r.salt" format="2">
  <advance width="418"/>
  <note>
r / design an alternative version with a round hook. Look at lettera (based on Olivetti Candia)
</note>
  <anchor x="128" y="0" name="bottom"/>
  <anchor x="234" y="524" name="top"/>
  <outline>
    <contour>
      <point x="104" y="0" type="line"/>
      <point x="152" y="0" type="line"/>
      <point x="152" y="356" type="line" smooth="yes"/>
      <point x="152" y="439"/>
      <point x="197" y="484"/>
      <point x="280" y="484" type="curve" smooth="yes"/>
      <point x="397" y="484" type="line"/>
      <point x="397" y="528" type="line"/>
      <point x="291" y="528" type="line" smooth="yes"/>
      <point x="183" y="528"/>
      <point x="134" y="461"/>
      <point x="134" y="360" type="curve"/>
      <point x="142" y="360" type="line"/>
      <point x="142" y="524" type="line"/>
      <point x="104" y="524" type="line"/>
    </contour>
  </outline>
</glyph>
<glyph name="riel-khmer.tnum" format="2">
  <advance width="632"/>
  <outline>
    <contour>
      <point x="319" y="-4" type="curve" smooth="yes"/>
      <point x="383" y="-4" type="line"/>
      <point x="383" y="384" type="line"/>
      <point x="339" y="384" type="line"/>
      <point x="339" y="17" type="line"/>
      <point x="363" y="37" type="line"/>
      <point x="317" y="37" type="line" smooth="yes"/>
      <point x="221" y="37"/>
      <point x="171" y="66"/>
      <point x="171" y="131" type="curve" smooth="yes"/>
      <point x="171" y="201"/>
      <point x="230" y="232"/>
      <point x="345" y="232" type="curve"/>
      <point x="345" y="273" type="line"/>
      <point x="208" y="273"/>
      <point x="126" y="225"/>
      <point x="126" y="130" type="curve" smooth="yes"/>
      <point x="126" y="44"/>
      <point x="196" y="-4"/>
    </contour>
    <contour>
      <point x="178" y="371" type="line"/>
      <point x="526" y="371" type="line"/>
      <point x="526" y="409" type="line"/>
      <point x="178" y="409" type="line"/>
    </contour>
    <contour>
      <point x="339" y="396" type="line"/>
      <point x="383" y="396" type="line"/>
      <point x="383" y="437" type="line" smooth="yes"/>
      <point x="383" y="481"/>
      <point x="370" y="505"/>
      <point x="331" y="531" type="curve" smooth="yes"/>
      <point x="295" y="554"/>
      <point x="262" y="573"/>
      <point x="241" y="588" type="curve" smooth="yes"/>
      <point x="220" y="603"/>
      <point x="210" y="623"/>
      <point x="225" y="656" type="curve" smooth="yes"/>
      <point x="238" y="686"/>
      <point x="261" y="694"/>
      <point x="306" y="694" type="curve" smooth="yes"/>
      <point x="358" y="694"/>
      <point x="399" y="689"/>
      <point x="449" y="682" type="curve"/>
      <point x="449" y="724" type="line"/>
      <point x="401" y="731"/>
      <point x="359" y="735"/>
      <point x="313" y="735" type="curve" smooth="yes"/>
      <point x="246" y="735"/>
      <point x="208" y="721"/>
      <point x="186" y="675" type="curve" smooth="yes"/>
      <point x="164" y="631"/>
      <point x="172" y="585"/>
      <point x="216" y="555" type="curve" smooth="yes"/>
      <point x="235" y="541"/>
      <point x="272" y="521"/>
      <point x="303" y="500" type="curve" smooth="yes"/>
      <point x="332" y="480"/>
      <point x="339" y="465"/>
      <point x="339" y="437" type="curve" smooth="yes"/>
    </contour>
  </outline>
</glyph>
<glyph name="ringcomb.case" format="2">
  <anchor x="109" y="730" name="_top"/>
  <anchor x="109" y="946" name="top"/>
  <outline>
    <contour>
      <point x="109" y="777" type="curve" smooth="yes"/>
      <point x="178" y="777"/>
      <point x="217" y="826"/>
      <point x="217" y="879" type="curve" smooth="yes"/>
      <point x="217" y="933"/>
      <point x="178" y="981"/>
      <point x="109" y="981" type="curve" smooth="yes"/>
      <point x="39" y="981"/>
      <point x="0" y="933"/>
      <point x="0" y="879" type="curve" smooth="yes"/>
      <point x="0" y="826"/>
      <point x="39" y="777"/>
    </contour>
    <contour>
      <point x="109" y="810" type="curve" smooth="yes"/>
      <point x="60" y="810"/>
      <point x="35" y="842"/>
      <point x="35" y="879" type="curve" smooth="yes"/>
      <point x="35" y="917"/>
      <point x="60" y="949"/>
      <point x="109" y="949" type="curve" smooth="yes"/>
      <point x="158" y="949"/>
      <point x="182" y="917"/>
      <point x="182" y="879" type="curve" smooth="yes"/>
      <point x="182" y="842"/>
      <point x="158" y="810"/>
    </contour>
  </outline>
</glyph>
<glyph name="seven.tnum.salt" format="2">
  <advance width="632"/>
  <outline>
    <contour>
      <point x="258" y="0" type="line"/>
      <point x="305" y="0" type="line"/>
      <point x="305" y="143" type="line" smooth="yes"/>
      <point x="305" y="368"/>
      <point x="373" y="527"/>
      <point x="545" y="653" type="curve"/>
      <point x="545" y="730" type="line"/>
      <point x="75" y="730" type="line"/>
      <point x="75" y="687" type="line"/>
      <point x="497" y="687" type="line"/>
      <point x="501" y="671" type="line"/>
      <point x="338" y="555"/>
      <point x="258" y="380"/>
      <point x="258" y="143" type="curve" smooth="yes"/>
    </contour>
  </outline>
</glyph>
<glyph name="six.tnum" format="2">
  <advance width="632"/>
  <outline>
    <contour>
      <point x="333" y="-17" type="curve" smooth="yes"/>
      <point x="494" y="-17"/>
      <point x="576" y="96"/>
      <point x="576" y="229" type="curve" smooth="yes"/>
      <point x="576" y="362"/>
      <point x="494" y="470"/>
      <point x="338" y="470" type="curve" smooth="yes"/>
      <point x="189" y="470"/>
      <point x="109" y="368"/>
      <point x="107" y="228" type="curve"/>
      <point x="122" y="228" type="line"/>
      <point x="122" y="354" type="line" smooth="yes"/>
      <point x="122" y="570"/>
      <point x="203" y="691"/>
      <point x="398" y="691" type="curve" smooth="yes"/>
      <point x="435" y="691"/>
      <point x="474" y="688"/>
      <point x="514" y="683" type="curve"/>
      <point x="514" y="726" type="line"/>
      <point x="475" y="731"/>
      <point x="439" y="734"/>
      <point x="402" y="734" type="curve" smooth="yes"/>
      <point x="181" y="734"/>
      <point x="79" y="602"/>
      <point x="79" y="359" type="curve" smooth="yes"/>
      <point x="79" y="324" type="line" smooth="yes"/>
      <point x="79" y="102"/>
      <point x="163" y="-17"/>
    </contour>
    <contour>
      <point x="333" y="27" type="curve" smooth="yes"/>
      <point x="199" y="27"/>
      <point x="135" y="126"/>
      <point x="135" y="228" type="curve" smooth="yes"/>
      <point x="135" y="343"/>
      <point x="207" y="428"/>
      <point x="334" y="428" type="curve" smooth="yes"/>
      <point x="466" y="428"/>
      <point x="529" y="341"/>
      <point x="529" y="229" type="curve" smooth="yes"/>
      <point x="529" y="120"/>
      <point x="461" y="27"/>
    </contour>
  </outline>
</glyph>
<glyph name="sora.tnum" format="2">
  <advance width="632"/>
  <outline>
    <contour>
      <point x="51" y="-7" type="line"/>
      <point x="315" y="474" type="line"/>
      <point x="288" y="468" type="line"/>
      <point x="346" y="468" type="line"/>
      <point x="318" y="474" type="line"/>
      <point x="580" y="-7" type="line"/>
      <point x="621" y="16" type="line"/>
      <point x="352" y="505" type="line"/>
      <point x="281" y="505" type="line"/>
      <point x="12" y="16" type="line"/>
    </contour>
    <contour>
      <point x="33" y="505" type="line"/>
      <point x="599" y="505" type="line"/>
      <point x="599" y="543" type="line"/>
      <point x="33" y="543" type="line"/>
    </contour>
    <contour>
      <point x="294" y="531" type="line"/>
      <point x="339" y="531" type="line"/>
      <point x="339" y="703" type="line"/>
      <point x="294" y="703" type="line"/>
    </contour>
    <contour>
      <point x="33" y="692" type="line"/>
      <point x="599" y="692" type="line"/>
      <point x="599" y="730" type="line"/>
      <point x="33" y="730" type="line"/>
    </contour>
  </outline>
</glyph>
<glyph name="sterling.tnum" format="2">
  <advance width="632"/>
  <outline>
    <contour>
      <point x="158" y="0" type="line"/>
      <point x="203" y="0" type="line"/>
      <point x="203" y="491" type="line" smooth="yes"/>
      <point x="203" y="644"/>
      <point x="278" y="694"/>
      <point x="375" y="694" type="curve" smooth="yes"/>
      <point x="421" y="694"/>
      <point x="487" y="687"/>
      <point x="528" y="680" type="curve"/>
      <point x="528" y="723" type="line"/>
      <point x="488" y="730"/>
      <point x="423" y="737"/>
      <point x="378" y="737" type="curve" smooth="yes"/>
      <point x="239" y="737"/>
      <point x="158" y="655"/>
      <point x="158" y="493" type="curve" smooth="yes"/>
    </contour>
    <contour>
      <point x="75" y="0" type="line"/>
      <point x="564" y="0" type="line"/>
      <point x="564" y="40" type="line"/>
      <point x="75" y="40" type="line"/>
    </contour>
    <contour>
      <point x="81" y="328" type="line"/>
      <point x="448" y="328" type="line"/>
      <point x="448" y="366" type="line"/>
      <point x="81" y="366" type="line"/>
    </contour>
    <contour>
      <point x="531" y="0" type="line"/>
      <point x="575" y="0" type="line"/>
      <point x="575" y="155" type="line"/>
      <point x="531" y="155" type="line"/>
    </contour>
  </outline>
</glyph>
<glyph name="two.tnum" format="2">
  <advance width="632"/>
  <outline>
    <contour>
      <point x="108" y="0" type="line"/>
      <point x="572" y="0" type="line"/>
      <point x="572" y="43" type="line"/>
      <point x="140" y="43" type="line"/>
      <point x="156" y="20" type="line"/>
      <point x="156" y="106" type="line" smooth="yes"/>
      <point x="156" y="162"/>
      <point x="174" y="195"/>
      <point x="252" y="231" type="curve" smooth="yes"/>
      <point x="403" y="303" type="line" smooth="yes"/>
      <point x="493" y="346"/>
      <point x="555" y="412"/>
      <point x="555" y="515" type="curve" smooth="yes"/>
      <point x="555" y="527" type="line" smooth="yes"/>
      <point x="555" y="653"/>
      <point x="472" y="749"/>
      <point x="329" y="749" type="curve" smooth="yes"/>
      <point x="187" y="749"/>
      <point x="102" y="653"/>
      <point x="102" y="520" type="curve"/>
      <point x="149" y="520" type="line"/>
      <point x="149" y="636"/>
      <point x="220" y="705"/>
      <point x="329" y="705" type="curve" smooth="yes"/>
      <point x="439" y="705"/>
      <point x="509" y="636"/>
      <point x="509" y="521" type="curve" smooth="yes"/>
      <point x="509" y="430"/>
      <point x="461" y="376"/>
      <point x="388" y="342" type="curve" smooth="yes"/>
      <point x="237" y="270" type="line" smooth="yes"/>
      <point x="136" y="223"/>
      <point x="108" y="180"/>
      <point x="108" y="101" type="curve" smooth="yes"/>
    </contour>
  </outline>
</glyph>
<glyph name="u.salt" format="2">
  <advance width="611"/>
  <anchor x="306" y="0" name="bottom"/>
  <anchor x="412" y="15" name="ogonek"/>
  <anchor x="306" y="524" name="top"/>
  <anchor x="594" y="524" name="topright"/>
  <outline>
    <contour>
      <point x="306" y="-16" type="curve" smooth="yes"/>
      <point x="441" y="-16"/>
      <point x="518" y="66"/>
      <point x="518" y="203" type="curve" smooth="yes"/>
      <point x="518" y="524" type="line"/>
      <point x="470" y="524" type="line"/>
      <point x="470" y="197" type="line" smooth="yes"/>
      <point x="470" y="89"/>
      <point x="414" y="28"/>
      <point x="306" y="28" type="curve" smooth="yes"/>
      <point x="197" y="28"/>
      <point x="142" y="88"/>
      <point x="142" y="197" type="curve" smooth="yes"/>
      <point x="142" y="524" type="line"/>
      <point x="94" y="524" type="line"/>
      <point x="94" y="203" type="line" smooth="yes"/>
      <point x="94" y="65"/>
      <point x="170" y="-16"/>
    </contour>
  </outline>
</glyph>
<glyph name="zero.tnum" format="2">
  <advance width="632"/>
  <outline>
    <contour>
      <point x="316" y="-17" type="curve" smooth="yes"/>
      <point x="471" y="-17"/>
      <point x="558" y="111"/>
      <point x="558" y="346" type="curve" smooth="yes"/>
      <point x="558" y="383" type="line" smooth="yes"/>
      <point x="558" y="626"/>
      <point x="465" y="749"/>
      <point x="316" y="749" type="curve" smooth="yes"/>
      <point x="167" y="749"/>
      <point x="74" y="626"/>
      <point x="74" y="383" type="curve" smooth="yes"/>
      <point x="74" y="346" type="line" smooth="yes"/>
      <point x="74" y="111"/>
      <point x="162" y="-17"/>
    </contour>
    <contour>
      <point x="316" y="27" type="curve" smooth="yes"/>
      <point x="194" y="27"/>
      <point x="123" y="124"/>
      <point x="123" y="365" type="curve" smooth="yes"/>
      <point x="123" y="612"/>
      <point x="198" y="705"/>
      <point x="316" y="705" type="curve" smooth="yes"/>
      <point x="435" y="705"/>
      <point x="510" y="612"/>
      <point x="510" y="365" type="curve" smooth="yes"/>
      <point x="510" y="124"/>
      <point x="438" y="27"/>
    </contour>
  </outline>
</glyph>
